<svg xmlns="http://www.w3.org/2000/svg" width="128" height="128" viewBox="0 0 128 128" fill="none">
    <script xmlns="" />
    <path
        d="M32.5963 75.3678C32.5963 76.4916 31.8304 77.2408 30.8729 77.2408H27.2346C26.2772 77.2408 25.5112 76.3043 25.5112 75.3678V70.498C25.5112 69.3742 26.2772 68.625 27.2346 68.625H30.8729C31.8304 68.625 32.5963 69.5615 32.5963 70.498V75.3678Z"
        fill="#D26497" />
    <path
        d="M29.1495 67.5012C30.5244 67.5012 31.6389 66.3272 31.6389 64.879C31.6389 63.4308 30.5244 62.2568 29.1495 62.2568C27.7747 62.2568 26.6602 63.4308 26.6602 64.879C26.6602 66.3272 27.7747 67.5012 29.1495 67.5012Z"
        fill="#D26497" />
    <path
        d="M58.064 53.4538C58.064 55.3268 56.7236 56.8252 55.0002 56.8252H46.3832C44.6598 56.8252 43.3193 55.3268 43.3193 53.4538L44.4683 44.6507C44.4683 42.7777 45.8087 41.2793 47.5321 41.2793H53.8512C55.5746 41.2793 56.9151 42.7777 56.9151 44.6507L58.064 53.4538Z"
        fill="#D26497" />
    <path
        d="M50.5957 39.4056C53.0281 39.4056 54.9999 37.2253 54.9999 34.5358C54.9999 31.8463 53.0281 29.666 50.5957 29.666C48.1633 29.666 46.1914 31.8463 46.1914 34.5358C46.1914 37.2253 48.1633 39.4056 50.5957 39.4056Z"
        fill="#D26497" />
    <path
        d="M69.1707 86.9827C69.1707 87.7319 68.5962 88.4811 67.8303 88.4811H64.192C63.426 88.4811 62.8516 87.9192 62.8516 86.9827L63.2345 83.2367C63.2345 82.4875 63.809 81.7383 64.575 81.7383H67.2558C68.0218 81.7383 68.5962 82.3002 68.5962 83.2367L69.1707 86.9827Z"
        fill="#D26497" />
    <path
        d="M66.1073 81.1753C67.1648 81.1753 68.0222 80.2529 68.0222 79.115C68.0222 77.9771 67.1648 77.0547 66.1073 77.0547C65.0497 77.0547 64.1924 77.9771 64.1924 79.115C64.1924 80.2529 65.0497 81.1753 66.1073 81.1753Z"
        fill="#D26497" />
    <path
        d="M64.0008 94.4726C64.0008 94.8472 63.6179 95.2218 63.2349 95.2218H61.703C61.32 95.2218 60.937 94.8472 60.937 94.4726V92.4123C60.937 92.0377 61.32 91.6631 61.703 91.6631H63.2349C63.6179 91.6631 64.0008 92.0377 64.0008 92.4123V94.4726Z"
        fill="#D26497" />
    <path
        d="M62.4692 91.1011C63.1038 91.1011 63.6182 90.598 63.6182 89.9773C63.6182 89.3567 63.1038 88.8535 62.4692 88.8535C61.8347 88.8535 61.3203 89.3567 61.3203 89.9773C61.3203 90.598 61.8347 91.1011 62.4692 91.1011Z"
        fill="#D26497" />
    <path
        d="M98.8518 38.0961C98.8518 39.0326 98.0858 39.7818 97.3199 39.7818H93.1071C92.3412 39.7818 91.5752 39.0326 91.5752 38.0961L92.1497 33.7882C92.1497 32.8517 92.9156 32.1025 93.6816 32.1025H96.9369C97.8943 32.1025 98.4688 32.8517 98.4688 33.7882L98.8518 38.0961Z"
        fill="#D26497" />
    <path
        d="M95.2138 31.1657C96.3771 31.1657 97.3202 30.0755 97.3202 28.7308C97.3202 27.386 96.3771 26.2959 95.2138 26.2959C94.0505 26.2959 93.1074 27.386 93.1074 28.7308C93.1074 30.0755 94.0505 31.1657 95.2138 31.1657Z"
        fill="#D26497" />
    <path
        d="M45.0427 40.9056C45.0427 41.4675 44.6597 41.8421 44.2767 41.8421H41.9788C41.5959 41.8421 41.2129 41.4675 41.2129 40.9056L41.5959 38.4707C41.5959 37.9088 41.9788 37.5342 42.3618 37.5342H44.0852C44.4682 37.5342 44.8512 37.9088 44.8512 38.4707L45.0427 40.9056Z"
        fill="#F7941D" />
    <path
        d="M43.1275 37.1593C43.762 37.1593 44.2764 36.5723 44.2764 35.8482C44.2764 35.1241 43.762 34.5371 43.1275 34.5371C42.4929 34.5371 41.9785 35.1241 41.9785 35.8482C41.9785 36.5723 42.4929 37.1593 43.1275 37.1593Z"
        fill="#F7941D" />
    <path
        d="M45.8085 104.211C45.8085 105.335 45.0425 106.271 43.8936 106.271H40.0638C39.1064 106.271 38.1489 105.335 38.1489 104.211V98.9666C38.1489 97.8428 38.9149 96.9062 40.0638 96.9062H43.8936C44.851 96.9062 45.8085 97.8428 45.8085 98.9666V104.211Z"
        fill="#F7941D" />
    <path
        d="M42.1701 95.7831C43.6507 95.7831 44.851 94.5252 44.851 92.9736C44.851 91.4219 43.6507 90.1641 42.1701 90.1641C40.6895 90.1641 39.4893 91.4219 39.4893 92.9736C39.4893 94.5252 40.6895 95.7831 42.1701 95.7831Z"
        fill="#F7941D" />
    <path
        d="M58.6379 29.2911C58.6379 29.853 58.2549 30.2276 57.6804 30.2276H55.7656C55.1911 30.2276 54.8081 29.853 54.8081 29.2911V26.6689C54.8081 26.107 55.1911 25.7324 55.7656 25.7324H57.6804C58.2549 25.7324 58.6379 26.107 58.6379 26.6689V29.2911Z"
        fill="#F7941D" />
    <path
        d="M56.7237 25.1716C57.464 25.1716 58.0641 24.5007 58.0641 23.6732C58.0641 22.8457 57.464 22.1748 56.7237 22.1748C55.9834 22.1748 55.3833 22.8457 55.3833 23.6732C55.3833 24.5007 55.9834 25.1716 56.7237 25.1716Z"
        fill="#F7941D" />
    <path
        d="M78.1702 44.2751C78.1702 45.7735 77.0212 47.0846 75.4893 47.0846H70.1276C68.5957 47.0846 67.4468 45.7735 67.4468 44.2751V36.7831C67.4468 35.2847 68.5957 33.9736 70.1276 33.9736H75.4893C77.0212 33.9736 78.1702 35.2847 78.1702 36.7831V44.2751Z"
        fill="#F7941D" />
    <path
        d="M72.8083 32.4746C74.9234 32.4746 76.6381 30.6297 76.6381 28.354C76.6381 26.0783 74.9234 24.2334 72.8083 24.2334C70.6932 24.2334 68.9785 26.0783 68.9785 28.354C68.9785 30.6297 70.6932 32.4746 72.8083 32.4746Z"
        fill="#F7941D" />
    <path
        d="M84.1063 77.9896C84.1063 79.3007 83.1488 80.4245 81.8084 80.4245H75.4893C74.1489 80.4245 73.1914 79.3007 73.1914 77.9896L73.9574 71.6214C73.9574 70.3103 74.9148 69.1865 76.2552 69.1865H81.0425C82.3829 69.1865 83.3403 70.3103 83.3403 71.6214L84.1063 77.9896Z"
        fill="#F7941D" />
    <path
        d="M78.7441 67.8762C80.542 67.8762 81.9994 66.2829 81.9994 64.3175C81.9994 62.3521 80.542 60.7588 78.7441 60.7588C76.9462 60.7588 75.4888 62.3521 75.4888 64.3175C75.4888 66.2829 76.9462 67.8762 78.7441 67.8762Z"
        fill="#F7941D" />
    <path
        d="M49.2551 69.187C49.2551 70.1234 48.4891 70.8727 47.7232 70.8727H44.6594C43.8934 70.8727 43.1274 70.1234 43.1274 69.187V64.8791C43.1274 63.9426 43.8934 63.1934 44.6594 63.1934H47.7232C48.4891 63.1934 49.2551 63.9426 49.2551 64.8791V69.187Z"
        fill="#7ACCC8" />
    <path
        d="M46.1909 62.4454C47.3542 62.4454 48.2972 61.4391 48.2972 60.1978C48.2972 58.9565 47.3542 57.9502 46.1909 57.9502C45.0275 57.9502 44.0845 58.9565 44.0845 60.1978C44.0845 61.4391 45.0275 62.4454 46.1909 62.4454Z"
        fill="#7ACCC8" />
    <path
        d="M59.5956 18.6153C59.5956 19.3645 59.0211 19.9264 58.4467 19.9264H55.1913C54.6169 19.9264 54.2339 19.3645 54.2339 18.6153L54.6169 15.4312C54.6169 14.682 55.1913 14.1201 55.7658 14.1201H58.0637C58.6381 14.1201 59.2126 14.682 59.2126 15.4312L59.5956 18.6153Z"
        fill="#7ACCC8" />
    <path
        d="M56.9143 13.3714C57.8661 13.3714 58.6377 12.6167 58.6377 11.6857C58.6377 10.7547 57.8661 10 56.9143 10C55.9625 10 55.1909 10.7547 55.1909 11.6857C55.1909 12.6167 55.9625 13.3714 56.9143 13.3714Z"
        fill="#7ACCC8" />
    <path
        d="M60.5524 103.464C60.5524 104.213 59.9779 104.775 59.4034 104.775H56.9141C56.1481 104.775 55.7651 104.213 55.7651 103.464V100.092C55.7651 99.3432 56.3396 98.7812 56.9141 98.7812H59.4034C60.1694 98.7812 60.5524 99.3432 60.5524 100.092V103.464Z"
        fill="#7ACCC8" />
    <path
        d="M58.0637 98.0312C59.0155 98.0312 59.7871 97.1926 59.7871 96.1582C59.7871 95.1237 59.0155 94.2852 58.0637 94.2852C57.1119 94.2852 56.3403 95.1237 56.3403 96.1582C56.3403 97.1926 57.1119 98.0312 58.0637 98.0312Z"
        fill="#7ACCC8" />
    <path
        d="M72.9999 82.6738C72.9999 83.0484 72.6169 83.4229 72.2339 83.4229H70.702C70.319 83.4229 69.936 83.0484 69.936 82.6738V80.6135C69.936 80.2389 70.319 79.8643 70.702 79.8643H72.2339C72.6169 79.8643 72.9999 80.2389 72.9999 80.6135V82.6738Z"
        fill="#7ACCC8" />
    <path
        d="M71.4677 79.3023C71.9965 79.3023 72.4251 78.7991 72.4251 78.1785C72.4251 77.5578 71.9965 77.0547 71.4677 77.0547C70.9389 77.0547 70.5103 77.5578 70.5103 78.1785C70.5103 78.7991 70.9389 79.3023 71.4677 79.3023Z"
        fill="#7ACCC8" />
    <path
        d="M109 50.0835C109 51.5819 107.851 52.7057 106.511 52.7057H101.34C100 52.7057 98.8511 51.5819 98.8511 50.0835V43.1534C98.8511 41.655 100 40.5312 101.34 40.5312H106.511C107.851 40.5312 109 41.655 109 43.1534V50.0835Z"
        fill="#7ACCC8" />
    <path
        d="M103.83 38.8445C105.734 38.8445 107.277 37.1674 107.277 35.0985C107.277 33.0297 105.734 31.3525 103.83 31.3525C101.926 31.3525 100.383 33.0297 100.383 35.0985C100.383 37.1674 101.926 38.8445 103.83 38.8445Z"
        fill="#7ACCC8" />
    <path
        d="M32.2121 59.2594C32.2121 60.3832 31.4461 61.1324 30.4887 61.1324H25.7014C24.744 61.1324 23.978 60.1959 23.978 59.2594L24.5525 54.3896C24.5525 53.2658 25.3185 52.5166 26.2759 52.5166H29.9142C30.8716 52.5166 31.6376 53.4531 31.6376 54.3896L32.2121 59.2594Z"
        fill="#A5C330" />
    <path
        d="M27.9991 51.3938C29.374 51.3938 30.4885 50.2198 30.4885 48.7716C30.4885 47.3234 29.374 46.1494 27.9991 46.1494C26.6243 46.1494 25.5098 47.3234 25.5098 48.7716C25.5098 50.2198 26.6243 51.3938 27.9991 51.3938Z"
        fill="#A5C330" />
    <path
        d="M51.3617 87.1681C51.3617 88.4792 50.4043 89.4157 49.2554 89.4157H43.5107C42.3617 89.4157 41.4043 88.4792 41.4043 87.1681L42.1703 81.3619C42.1703 80.0508 43.1277 79.1143 44.2766 79.1143H48.4894C49.6383 79.1143 50.5958 80.0508 50.5958 81.3619L51.3617 87.1681Z"
        fill="#A5C330" />
    <path
        d="M46.3826 77.9893C47.9689 77.9893 49.2549 76.5637 49.2549 74.8052C49.2549 73.0467 47.9689 71.6211 46.3826 71.6211C44.7962 71.6211 43.5103 73.0467 43.5103 74.8052C43.5103 76.5637 44.7962 77.9893 46.3826 77.9893Z"
        fill="#A5C330" />
    <path
        d="M54.0421 25.5465C54.0421 26.6703 53.2762 27.4195 52.3187 27.4195H47.5315C46.5741 27.4195 45.8081 26.483 45.8081 25.5465L46.3826 20.6767C46.3826 19.5529 47.1485 18.8037 48.106 18.8037H51.7443C52.7017 18.8037 53.4677 19.7402 53.4677 20.6767L54.0421 25.5465Z"
        fill="#A5C330" />
    <path
        d="M50.0216 17.8665C51.3964 17.8665 52.5109 16.6925 52.5109 15.2443C52.5109 13.7961 51.3964 12.6221 50.0216 12.6221C48.6468 12.6221 47.5322 13.7961 47.5322 15.2443C47.5322 16.6925 48.6468 17.8665 50.0216 17.8665Z"
        fill="#A5C330" />
    <path
        d="M93.8726 51.7673C93.8726 53.6403 92.5322 55.1386 90.8088 55.1386H82.1918C80.4684 55.1386 79.1279 53.6403 79.1279 51.7673L80.2769 42.9642C80.2769 41.0912 81.6173 39.5928 83.3407 39.5928H89.6598C91.3832 39.5928 92.7237 41.0912 92.7237 42.9642L93.8726 51.7673Z"
        fill="#A5C330" />
    <path
        d="M86.4043 37.7191C88.8367 37.7191 90.8085 35.5388 90.8085 32.8493C90.8085 30.1598 88.8367 27.9795 86.4043 27.9795C83.9718 27.9795 82 30.1598 82 32.8493C82 35.5388 83.9718 37.7191 86.4043 37.7191Z"
        fill="#A5C330" />
    <path fill-rule="evenodd" clip-rule="evenodd"
        d="M25.7019 27.4189C25.7019 27.2316 25.8934 27.0443 25.8934 27.0443C25.8934 26.4824 25.5104 26.1078 25.1275 26.1078C24.936 26.1078 24.7445 26.1078 24.553 26.2951C24.3615 25.7332 24.17 25.5459 23.787 25.5459C23.4041 25.5459 23.0211 25.9205 23.0211 26.2951C23.0211 26.4824 23.0211 26.4824 23.0211 26.6697H22.8296C22.4466 26.6697 22.0636 27.0443 22.0636 27.4189C22.0636 27.6062 22.0636 27.6062 22.0636 27.7935C21.8722 27.9808 21.6807 28.3554 21.6807 28.9173C21.6807 29.6665 22.2551 30.4157 23.0211 30.4157C23.2126 30.4157 23.4041 30.4157 23.5956 30.2284V33.4125H24.7445V30.0411H24.936C25.7019 30.0411 26.2764 29.4792 26.2764 28.5427C26.2764 27.9808 26.0849 27.6062 25.7019 27.4189Z"
        fill="#A5C330" />
    <path
        d="M60.9358 90.7238C60.9358 92.0349 59.9783 92.9714 58.8294 92.9714H54.6166C53.4677 92.9714 52.5103 92.0349 52.5103 90.7238V84.9175C52.5103 83.6064 53.4677 82.6699 54.6166 82.6699H58.8294C59.9783 82.6699 60.9358 83.6064 60.9358 84.9175V90.7238Z"
        fill="#D31820" />
    <path
        d="M56.7229 81.3594C58.3093 81.3594 59.5953 79.9338 59.5953 78.1753C59.5953 76.4168 58.3093 74.9912 56.7229 74.9912C55.1366 74.9912 53.8506 76.4168 53.8506 78.1753C53.8506 79.9338 55.1366 81.3594 56.7229 81.3594Z"
        fill="#D31820" />
    <path
        d="M68.2129 30.7886C68.2129 32.0997 67.2554 33.2235 65.915 33.2235H61.5108C60.3618 33.2235 59.2129 32.0997 59.2129 30.7886V24.6077C59.2129 23.2967 60.1703 22.1729 61.5108 22.1729H65.915C67.0639 22.1729 68.2129 23.2967 68.2129 24.6077V30.7886Z"
        fill="#D31820" />
    <path
        d="M63.808 21.0494C65.5001 21.0494 66.8718 19.54 66.8718 17.678C66.8718 15.8161 65.5001 14.3066 63.808 14.3066C62.1159 14.3066 60.7441 15.8161 60.7441 17.678C60.7441 19.54 62.1159 21.0494 63.808 21.0494Z"
        fill="#D31820" />
    <path
        d="M81.0422 33.0366C81.0422 33.5985 80.6592 33.9731 80.2762 33.9731H77.9784C77.5954 33.9731 77.2124 33.5985 77.2124 33.0366L77.5954 30.789C77.5954 30.2271 77.9784 29.8525 78.3613 29.8525H80.0847C80.4677 29.8525 80.8507 30.2271 80.8507 30.789L81.0422 33.0366Z"
        fill="#D31820" />
    <path
        d="M79.1275 29.2911C79.762 29.2911 80.2764 28.7041 80.2764 27.98C80.2764 27.2559 79.762 26.6689 79.1275 26.6689C78.4929 26.6689 77.9785 27.2559 77.9785 27.98C77.9785 28.7041 78.4929 29.2911 79.1275 29.2911Z"
        fill="#D31820" />
    <path
        d="M92.723 72.3701C92.723 73.6812 91.7655 74.6177 90.6166 74.6177H86.2123C85.0634 74.6177 84.106 73.4939 84.106 72.3701V66.3765C84.106 65.0654 85.0634 64.1289 86.2123 64.1289H90.6166C91.7655 64.1289 92.723 65.2527 92.723 66.3765V72.3701Z"
        fill="#D31820" />
    <path
        d="M88.3187 62.818C90.0108 62.818 91.3825 61.3086 91.3825 59.4466C91.3825 57.5846 90.0108 56.0752 88.3187 56.0752C86.6266 56.0752 85.2549 57.5846 85.2549 59.4466C85.2549 61.3086 86.6266 62.818 88.3187 62.818Z"
        fill="#D31820" />
    <path
        d="M98.0847 48.3946C98.0847 48.9565 97.7017 49.3311 97.1272 49.3311H95.2123C94.6379 49.3311 94.2549 48.9565 94.2549 48.3946V45.7724C94.2549 45.2105 94.6379 44.8359 95.2123 44.8359H97.1272C97.7017 44.8359 98.0847 45.2105 98.0847 45.7724V48.3946Z"
        fill="#D31820" />
    <path
        d="M96.17 44.2751C96.9103 44.2751 97.5104 43.6043 97.5104 42.7767C97.5104 41.9492 96.9103 41.2783 96.17 41.2783C95.4297 41.2783 94.8296 41.9492 94.8296 42.7767C94.8296 43.6043 95.4297 44.2751 96.17 44.2751Z"
        fill="#D31820" />
    <path
        d="M41.2128 50.2687C41.2128 51.5798 40.2554 52.5163 39.1064 52.5163H33.3618C32.2128 52.5163 31.2554 51.5798 31.2554 50.2687L32.0213 44.4624C32.0213 43.1513 32.9788 42.2148 34.1277 42.2148H38.3405C39.4894 42.2148 40.4469 43.1513 40.4469 44.4624L41.2128 50.2687Z"
        fill="#F15A31" />
    <path
        d="M36.2342 40.7158C37.9263 40.7158 39.2981 39.2903 39.2981 37.5318C39.2981 35.7732 37.9263 34.3477 36.2342 34.3477C34.5421 34.3477 33.1704 35.7732 33.1704 37.5318C33.1704 39.2903 34.5421 40.7158 36.2342 40.7158Z"
        fill="#F15A31" />
    <path
        d="M56.9149 114.325C56.9149 115.824 55.766 117.135 54.4255 117.135H47.3404C46 117.135 44.8511 115.824 44.8511 114.325L45.8085 107.208C45.8085 105.71 46.9575 104.398 48.2979 104.398H53.4681C54.8085 104.398 55.9575 105.71 55.9575 107.208L56.9149 114.325Z"
        fill="#F15A31" />
    <path
        d="M50.7867 102.901C52.7961 102.901 54.425 101.14 54.425 98.9675C54.425 96.7952 52.7961 95.0342 50.7867 95.0342C48.7774 95.0342 47.1484 96.7952 47.1484 98.9675C47.1484 101.14 48.7774 102.901 50.7867 102.901Z"
        fill="#F15A31" />
    <path
        d="M58.2554 71.0584C58.2554 71.9949 57.4895 72.9314 56.532 72.9314H51.9363C50.9789 72.9314 50.2129 72.1822 50.2129 71.0584L50.7874 66.3759C50.7874 65.4394 51.5533 64.5029 52.5108 64.5029H55.9576C56.915 64.5029 57.681 65.2521 57.681 66.3759L58.2554 71.0584Z"
        fill="#F15A31" />
    <path
        d="M54.2344 63.7542C55.5035 63.7542 56.5323 62.5802 56.5323 61.132C56.5323 59.6838 55.5035 58.5098 54.2344 58.5098C52.9653 58.5098 51.9365 59.6838 51.9365 61.132C51.9365 62.5802 52.9653 63.7542 54.2344 63.7542Z"
        fill="#F15A31" />
    <path
        d="M65.3401 45.7739C65.3401 46.7104 64.5741 47.4596 63.8082 47.4596H59.5954C58.8294 47.4596 58.0635 46.7104 58.0635 45.7739L58.6379 41.466C58.6379 40.5295 59.4039 39.7803 60.1699 39.7803H63.4252C64.3826 39.7803 64.9571 40.5295 64.9571 41.466L65.3401 45.7739Z"
        fill="#F15A31" />
    <path
        d="M61.5107 38.8444C62.674 38.8444 63.6171 37.7543 63.6171 36.4095C63.6171 35.0647 62.674 33.9746 61.5107 33.9746C60.3474 33.9746 59.4043 35.0647 59.4043 36.4095C59.4043 37.7543 60.3474 38.8444 61.5107 38.8444Z"
        fill="#F15A31" />
    <path
        d="M72.0426 23.4853C72.0426 23.8599 71.6596 24.2345 71.2766 24.2345H69.1703C68.7873 24.2345 68.4043 23.8599 68.4043 23.4853L68.5958 21.425C68.5958 21.0504 68.9788 20.6758 69.3617 20.6758H70.8937C71.2766 20.6758 71.6596 21.0504 71.6596 21.425L72.0426 23.4853Z"
        fill="#F15A31" />
    <path
        d="M70.1279 19.9263C70.7625 19.9263 71.2769 19.4232 71.2769 18.8025C71.2769 18.1819 70.7625 17.6787 70.1279 17.6787C69.4934 17.6787 68.979 18.1819 68.979 18.8025C68.979 19.4232 69.4934 19.9263 70.1279 19.9263Z"
        fill="#F15A31" />
    <path
        d="M77.5965 58.51C77.5965 59.2592 77.022 60.0084 76.2561 60.0084H72.6178C71.8518 60.0084 71.2773 59.2592 71.2773 58.51L71.8518 54.764C71.8518 54.0148 72.4263 53.2656 73.1922 53.2656H75.8731C76.639 53.2656 77.2135 54.0148 77.2135 54.764L77.5965 58.51Z"
        fill="#F15A31" />
    <path
        d="M74.3412 52.5171C75.3987 52.5171 76.2561 51.5947 76.2561 50.4568C76.2561 49.3189 75.3987 48.3965 74.3412 48.3965C73.2836 48.3965 72.4263 49.3189 72.4263 50.4568C72.4263 51.5947 73.2836 52.5171 74.3412 52.5171Z"
        fill="#F15A31" />
    <path
        d="M37.766 101.215C37.766 101.964 37.1915 102.339 36.6171 102.339H33.5532C32.9788 102.339 32.4043 101.777 32.4043 101.215L32.7873 98.031C32.7873 97.2818 33.3617 96.9072 33.9362 96.9072H36.2341C36.8085 96.9072 37.383 97.4691 37.383 98.031L37.766 101.215Z"
        fill="#198FB1" />
    <path
        d="M35.2765 96.1585C36.1226 96.1585 36.8085 95.4038 36.8085 94.4728C36.8085 93.5418 36.1226 92.7871 35.2765 92.7871C34.4305 92.7871 33.7446 93.5418 33.7446 94.4728C33.7446 95.4038 34.4305 96.1585 35.2765 96.1585Z"
        fill="#198FB1" />
    <path
        d="M72.6171 72.7471C72.6171 74.8074 71.0851 76.3058 69.3617 76.3058H62.6596C60.7447 76.3058 59.4043 74.6201 59.4043 72.7471V63.5694C59.4043 61.5091 60.9362 60.0107 62.6596 60.0107H69.3617C71.2766 60.0107 72.6171 61.6964 72.6171 63.5694V72.7471Z"
        fill="#198FB1" />
    <path
        d="M65.9151 57.9511C68.4532 57.9511 70.5108 55.687 70.5108 52.894C70.5108 50.101 68.4532 47.8369 65.9151 47.8369C63.3769 47.8369 61.3193 50.101 61.3193 52.894C61.3193 55.687 63.3769 57.9511 65.9151 57.9511Z"
        fill="#198FB1" />
    <path
        d="M84.4891 61.3222C84.4891 61.6968 84.1061 62.0714 83.7232 62.0714H82.1913C81.8083 62.0714 81.4253 61.6968 81.4253 61.3222V59.2619C81.4253 58.8873 81.8083 58.5127 82.1913 58.5127H83.7232C84.1061 58.5127 84.4891 58.8873 84.4891 59.2619V61.3222Z"
        fill="#198FB1" />
    <path
        d="M82.9574 58.1372C83.4862 58.1372 83.9149 57.6341 83.9149 57.0134C83.9149 56.3928 83.4862 55.8896 82.9574 55.8896C82.4287 55.8896 82 56.3928 82 57.0134C82 57.6341 82.4287 58.1372 82.9574 58.1372Z"
        fill="#198FB1" />
    <path
        d="M104.979 60.0103C104.979 60.5722 104.596 60.9468 104.213 60.9468H102.49C102.107 60.9468 101.724 60.5722 101.724 60.0103V57.7627C101.724 57.2008 102.107 56.8262 102.49 56.8262H104.213C104.596 56.8262 104.979 57.2008 104.979 57.7627V60.0103Z"
        fill="#198FB1" />
    <path
        d="M103.447 56.2638C104.082 56.2638 104.596 55.6768 104.596 54.9527C104.596 54.2286 104.082 53.6416 103.447 53.6416C102.813 53.6416 102.298 54.2286 102.298 54.9527C102.298 55.6768 102.813 56.2638 103.447 56.2638Z"
        fill="#198FB1" />
    <path
        d="M42.5534 68.8143C42.5534 69.9381 41.5959 70.8746 40.6385 70.8746H35.0853C33.9364 70.8746 33.1704 69.9381 33.1704 68.8143L33.9364 63.3826C33.9364 62.2588 34.8938 61.3223 35.8513 61.3223H39.8725C41.0215 61.3223 41.7874 62.2588 41.7874 63.3826L42.5534 68.8143Z"
        fill="#198FB1" />
    <path
        d="M37.7664 59.8227C39.3527 59.8227 40.6387 58.481 40.6387 56.8259C40.6387 55.1708 39.3527 53.8291 37.7664 53.8291C36.18 53.8291 34.894 55.1708 34.894 56.8259C34.894 58.481 36.18 59.8227 37.7664 59.8227Z"
        fill="#198FB1" />
    <path
        d="M44.2765 31.3541C44.2765 32.4779 43.5106 33.2271 42.5531 33.2271H38.9148C37.9574 33.2271 37.1914 32.2906 37.1914 31.3541V26.4843C37.1914 25.3605 37.9574 24.6113 38.9148 24.6113H42.5531C43.5106 24.6113 44.2765 25.5478 44.2765 26.4843V31.3541Z"
        fill="#198FB1" />
    <path
        d="M40.6378 23.4876C42.0126 23.4876 43.1272 22.3136 43.1272 20.8654C43.1272 19.4172 42.0126 18.2432 40.6378 18.2432C39.263 18.2432 38.1484 19.4172 38.1484 20.8654C38.1484 22.3136 39.263 23.4876 40.6378 23.4876Z"
        fill="#198FB1" />
    <path
        d="M61.3187 58.8857C61.3187 59.2603 60.9357 59.6349 60.5528 59.6349H59.0208C58.6379 59.6349 58.2549 59.2603 58.2549 58.8857V56.8254C58.2549 56.4508 58.6379 56.0762 59.0208 56.0762H60.5528C60.9357 56.0762 61.3187 56.4508 61.3187 56.8254V58.8857Z"
        fill="#198FB1" />
    <path
        d="M59.7865 55.5142C60.3153 55.5142 60.744 55.0111 60.744 54.3904C60.744 53.7697 60.3153 53.2666 59.7865 53.2666C59.2578 53.2666 58.8291 53.7697 58.8291 54.3904C58.8291 55.0111 59.2578 55.5142 59.7865 55.5142Z"
        fill="#198FB1" />
    <path
        d="M100.957 63.5692C100.957 64.5057 100.191 65.4422 99.2337 65.4422H94.638C93.6805 65.4422 92.9146 64.693 92.9146 63.5692L93.489 58.8867C93.489 57.9502 94.255 57.0137 95.2124 57.0137H98.6592C99.6167 57.0137 100.383 57.7629 100.383 58.8867L100.957 63.5692Z"
        fill="#198FB1" />
    <path
        d="M96.9361 56.2649C98.2051 56.2649 99.2339 55.0909 99.2339 53.6427C99.2339 52.1945 98.2051 51.0205 96.9361 51.0205C95.667 51.0205 94.6382 52.1945 94.6382 53.6427C94.6382 55.0909 95.667 56.2649 96.9361 56.2649Z"
        fill="#198FB1" />
    <path fill-rule="evenodd" clip-rule="evenodd"
        d="M23.4043 31.7277C24.1702 31.7277 24.3617 31.3531 24.3617 30.9785C24.3617 30.2293 23.2128 29.8547 22.8298 30.7912C22.8298 30.6039 22.8298 30.6039 22.6383 30.6039C22.4468 29.8547 22.0638 29.1055 21.2979 29.1055C20.3404 29.1055 19.5745 29.8547 19.5745 30.7912C19.5745 30.9785 19.383 30.9785 19.1915 30.9785C19.1915 31.1658 19.1915 31.1658 19.383 31.3531C19.1915 31.3531 19 31.3531 19 31.5404C19 31.915 19.1915 32.1023 19.383 32.1023C19.1915 32.2896 19 32.8515 19.383 32.8515C19.9574 33.0388 20.5319 32.6642 20.7234 32.4769C21.1064 32.6642 21.4894 32.4769 21.8723 32.4769C21.4894 32.8515 21.6808 33.0388 22.0638 33.2261C22.4468 33.4134 23.0213 33.2261 23.0213 32.8515C23.0213 32.6642 22.8298 32.4769 22.6383 32.4769C22.6383 32.2896 23.2128 31.915 23.4043 31.7277Z"
        fill="#198FB1" />
    <path
        d="M37.766 101.215C37.766 101.964 37.1915 102.339 36.6171 102.339H33.5532C32.9788 102.339 32.4043 101.777 32.4043 101.215L32.7873 98.031C32.7873 97.2818 33.3617 96.9072 33.9362 96.9072H36.2341C36.8085 96.9072 37.383 97.4691 37.383 98.031L37.766 101.215Z"
        fill="#198FB1" />
    <path
        d="M35.2765 96.1585C36.1226 96.1585 36.8085 95.4038 36.8085 94.4728C36.8085 93.5418 36.1226 92.7871 35.2765 92.7871C34.4305 92.7871 33.7446 93.5418 33.7446 94.4728C33.7446 95.4038 34.4305 96.1585 35.2765 96.1585Z"
        fill="#198FB1" />
    <path
        d="M72.6171 72.7471C72.6171 74.8074 71.0851 76.3058 69.3617 76.3058H62.6596C60.7447 76.3058 59.4043 74.6201 59.4043 72.7471V63.5694C59.4043 61.5091 60.9362 60.0107 62.6596 60.0107H69.3617C71.2766 60.0107 72.6171 61.6964 72.6171 63.5694V72.7471Z"
        fill="#198FB1" />
    <path
        d="M65.9151 57.9511C68.4532 57.9511 70.5108 55.687 70.5108 52.894C70.5108 50.101 68.4532 47.8369 65.9151 47.8369C63.3769 47.8369 61.3193 50.101 61.3193 52.894C61.3193 55.687 63.3769 57.9511 65.9151 57.9511Z"
        fill="#198FB1" />
    <path
        d="M84.4891 61.3222C84.4891 61.6968 84.1061 62.0714 83.7232 62.0714H82.1913C81.8083 62.0714 81.4253 61.6968 81.4253 61.3222V59.2619C81.4253 58.8873 81.8083 58.5127 82.1913 58.5127H83.7232C84.1061 58.5127 84.4891 58.8873 84.4891 59.2619V61.3222Z"
        fill="#198FB1" />
    <path
        d="M82.9574 58.1372C83.4862 58.1372 83.9149 57.6341 83.9149 57.0134C83.9149 56.3928 83.4862 55.8896 82.9574 55.8896C82.4287 55.8896 82 56.3928 82 57.0134C82 57.6341 82.4287 58.1372 82.9574 58.1372Z"
        fill="#198FB1" />
    <path
        d="M104.979 60.0103C104.979 60.5722 104.596 60.9468 104.213 60.9468H102.49C102.107 60.9468 101.724 60.5722 101.724 60.0103V57.7627C101.724 57.2008 102.107 56.8262 102.49 56.8262H104.213C104.596 56.8262 104.979 57.2008 104.979 57.7627V60.0103Z"
        fill="#198FB1" />
    <path
        d="M103.447 56.2638C104.082 56.2638 104.596 55.6768 104.596 54.9527C104.596 54.2286 104.082 53.6416 103.447 53.6416C102.813 53.6416 102.298 54.2286 102.298 54.9527C102.298 55.6768 102.813 56.2638 103.447 56.2638Z"
        fill="#198FB1" />
    <path
        d="M42.5534 68.8143C42.5534 69.9381 41.5959 70.8746 40.6385 70.8746H35.0853C33.9364 70.8746 33.1704 69.9381 33.1704 68.8143L33.9364 63.3826C33.9364 62.2588 34.8938 61.3223 35.8513 61.3223H39.8725C41.0215 61.3223 41.7874 62.2588 41.7874 63.3826L42.5534 68.8143Z"
        fill="#198FB1" />
    <path
        d="M37.7664 59.8227C39.3527 59.8227 40.6387 58.481 40.6387 56.8259C40.6387 55.1708 39.3527 53.8291 37.7664 53.8291C36.18 53.8291 34.894 55.1708 34.894 56.8259C34.894 58.481 36.18 59.8227 37.7664 59.8227Z"
        fill="#198FB1" />
    <path
        d="M44.2765 31.3541C44.2765 32.4779 43.5106 33.2271 42.5531 33.2271H38.9148C37.9574 33.2271 37.1914 32.2906 37.1914 31.3541V26.4843C37.1914 25.3605 37.9574 24.6113 38.9148 24.6113H42.5531C43.5106 24.6113 44.2765 25.5478 44.2765 26.4843V31.3541Z"
        fill="#198FB1" />
    <path
        d="M40.6378 23.4876C42.0126 23.4876 43.1272 22.3136 43.1272 20.8654C43.1272 19.4172 42.0126 18.2432 40.6378 18.2432C39.263 18.2432 38.1484 19.4172 38.1484 20.8654C38.1484 22.3136 39.263 23.4876 40.6378 23.4876Z"
        fill="#198FB1" />
    <path
        d="M61.3187 58.8857C61.3187 59.2603 60.9357 59.6349 60.5528 59.6349H59.0208C58.6379 59.6349 58.2549 59.2603 58.2549 58.8857V56.8254C58.2549 56.4508 58.6379 56.0762 59.0208 56.0762H60.5528C60.9357 56.0762 61.3187 56.4508 61.3187 56.8254V58.8857Z"
        fill="#198FB1" />
    <path
        d="M59.7865 55.5142C60.3153 55.5142 60.744 55.0111 60.744 54.3904C60.744 53.7697 60.3153 53.2666 59.7865 53.2666C59.2578 53.2666 58.8291 53.7697 58.8291 54.3904C58.8291 55.0111 59.2578 55.5142 59.7865 55.5142Z"
        fill="#198FB1" />
    <path
        d="M100.957 63.5692C100.957 64.5057 100.191 65.4422 99.2337 65.4422H94.638C93.6805 65.4422 92.9146 64.693 92.9146 63.5692L93.489 58.8867C93.489 57.9502 94.255 57.0137 95.2124 57.0137H98.6592C99.6167 57.0137 100.383 57.7629 100.383 58.8867L100.957 63.5692Z"
        fill="#198FB1" />
    <path
        d="M96.9361 56.2649C98.2051 56.2649 99.2339 55.0909 99.2339 53.6427C99.2339 52.1945 98.2051 51.0205 96.9361 51.0205C95.667 51.0205 94.6382 52.1945 94.6382 53.6427C94.6382 55.0909 95.667 56.2649 96.9361 56.2649Z"
        fill="#198FB1" />
    <path fill-rule="evenodd" clip-rule="evenodd"
        d="M23.4043 31.7277C24.1702 31.7277 24.3617 31.3531 24.3617 30.9785C24.3617 30.2293 23.2128 29.8547 22.8298 30.7912C22.8298 30.6039 22.8298 30.6039 22.6383 30.6039C22.4468 29.8547 22.0638 29.1055 21.2979 29.1055C20.3404 29.1055 19.5745 29.8547 19.5745 30.7912C19.5745 30.9785 19.383 30.9785 19.1915 30.9785C19.1915 31.1658 19.1915 31.1658 19.383 31.3531C19.1915 31.3531 19 31.3531 19 31.5404C19 31.915 19.1915 32.1023 19.383 32.1023C19.1915 32.2896 19 32.8515 19.383 32.8515C19.9574 33.0388 20.5319 32.6642 20.7234 32.4769C21.1064 32.6642 21.4894 32.4769 21.8723 32.4769C21.4894 32.8515 21.6808 33.0388 22.0638 33.2261C22.4468 33.4134 23.0213 33.2261 23.0213 32.8515C23.0213 32.6642 22.8298 32.4769 22.6383 32.4769C22.6383 32.2896 23.2128 31.915 23.4043 31.7277Z"
        fill="#198FB1" />
    <script xmlns="" />
</svg>