<?xml version="1.0" encoding="utf-8" ?>
<svg xmlns="http://www.w3.org/2000/svg" xmlns:xlink="http://www.w3.org/1999/xlink" width="1032" height="1032">
	<path fill="#B9B8B7" fill-opacity="0.3882353" transform="matrix(1.00781 0 0 1.00781 0 -1.52588e-05)" d="M884.954 409.875C884.933 409.846 884.906 409.819 884.889 409.786C883.623 407.173 884.535 398.606 884.416 395.263C884.114 386.761 877.899 362.141 880.302 355.834C884.888 369.397 885.195 383.485 885.17 397.657C885.163 401.644 885.391 405.926 884.954 409.875Z"/>
	<path fill="#B9B8B7" fill-opacity="0.35294119" transform="matrix(1.00781 0 0 1.00781 0 -1.52588e-05)" d="M935.266 607.725C935.428 607.806 935.601 607.867 935.752 607.967C939.585 610.54 940.95 619.456 945.541 620.687C946.194 620.32 946.544 620.362 946.712 619.553C947.464 615.922 944.284 612.856 944.527 609.219C947.906 616.76 952.932 627.463 949.441 635.758C948.721 637.468 947.794 639.047 946.582 640.448C945.817 638.057 950.36 632.608 949.834 629.159C949.642 627.898 949.4 627.623 948.403 627.031C946.706 628.175 946.799 630.479 945.268 631.455C944.992 630.325 945.07 630.756 944.901 629.657L944.792 628.913C942.645 628.003 937.953 628.54 935.489 628.437C938.265 628.105 941.142 628.07 943.937 627.917C941.7 621.047 938.249 614.311 935.266 607.725Z"/>
	<path fill="#B9B8B7" fill-opacity="0.53333336" transform="matrix(1.00781 0 0 1.00781 0 -1.52588e-05)" d="M929.73 596.623C929.776 594.156 928.884 591.656 928.578 589.203C928.276 586.785 928.093 585.083 929.678 583.052L931.192 583.334C936.484 591.258 940.238 600.71 944.527 609.219C944.284 612.856 947.464 615.922 946.712 619.553C946.544 620.362 946.194 620.32 945.541 620.687C940.95 619.456 939.585 610.54 935.752 607.967C935.601 607.867 935.428 607.806 935.266 607.725C932.974 605.336 931.175 599.721 929.73 596.623Z"/>
	<defs>
		<linearGradient id="gradient_0" gradientUnits="userSpaceOnUse" x1="256.08118" y1="759.06525" x2="212.10274" y2="778.35413">
			<stop offset="0" stop-color="#BABAB9" stop-opacity="0"/>
			<stop offset="1" stop-color="#BABAB9" stop-opacity="0.043137256"/>
		</linearGradient>
	</defs>
	<path fill="url(#gradient_0)" transform="matrix(1.00781 0 0 1.00781 0 -1.52588e-05)" d="M273.023 797.09C249.962 786.842 219.187 768.293 201.937 750.097C199.389 747.409 198.286 743.973 195.889 741.214C195.795 741.106 195.697 741.001 195.6 740.894L195.927 740.525L199.384 742.104L200.097 741.695C210.352 747.074 220.386 752.91 230.5 758.55C239.814 763.744 249.771 768.695 258.141 775.355C262.201 778.585 267.808 784.093 269.666 789.043C270.103 792.001 271.653 794.475 273.023 797.09Z"/>
	<defs>
		<linearGradient id="gradient_1" gradientUnits="userSpaceOnUse" x1="766.87549" y1="224.4736" x2="754.43768" y2="231.50185">
			<stop offset="0" stop-color="#DCDBDA" stop-opacity="0.21960784"/>
			<stop offset="1" stop-color="#AEADAD" stop-opacity="0.30980393"/>
		</linearGradient>
	</defs>
	<path fill="url(#gradient_1)" transform="matrix(1.00781 0 0 1.00781 0 -1.52588e-05)" d="M729.07 182.078C757.254 192.872 774.629 238.227 787.307 263.755C789.556 268.283 791.641 273.098 794.311 277.39C794.396 277.527 794.484 277.662 794.57 277.798C788.152 274.736 782.526 271.204 777.336 266.292C760.444 250.306 748.443 220.832 738.116 199.841C735.314 194.147 732.793 187.708 729.308 182.428C729.23 182.31 729.15 182.194 729.07 182.078Z"/>
	<defs>
		<linearGradient id="gradient_2" gradientUnits="userSpaceOnUse" x1="882.42719" y1="376.55576" x2="857.901" y2="379.65555">
			<stop offset="0" stop-color="#CECECC" stop-opacity="0.38039216"/>
			<stop offset="1" stop-color="#999797" stop-opacity="0.43921569"/>
		</linearGradient>
	</defs>
	<path fill="url(#gradient_2)" transform="matrix(1.00781 0 0 1.00781 0 -1.52588e-05)" d="M860.151 327.799C870.112 335.039 876.191 344.332 880.302 355.834C877.899 362.141 884.114 386.761 884.416 395.263C884.535 398.606 883.623 407.173 884.889 409.786C884.906 409.819 884.933 409.846 884.954 409.875C885.134 414.812 885.167 419.718 884.991 424.656C876.317 424.934 867.571 424.967 858.893 424.918C860.089 424.748 861.181 424.502 862.34 424.162C861.895 398.971 863.693 373.54 862.355 348.402C861.989 341.519 861.016 334.634 860.151 327.799Z"/>
	<path fill="#B9B8B7" transform="matrix(1.00781 0 0 1.00781 0 -1.52588e-05)" d="M938.499 440.181C945.656 447.992 953.126 454.213 952.639 465.762C952.274 474.411 948.792 482.999 945.131 490.723C935.168 511.745 917.767 535.298 922.508 559.643C924.127 567.96 927.682 575.681 931.192 583.334L929.678 583.052C928.093 585.083 928.276 586.785 928.578 589.203C928.884 591.656 929.776 594.156 929.73 596.623C924.987 590.362 912.477 565.878 911.578 558.227C911.774 551.19 906.644 545.8 907.828 538.279C911.285 516.319 927.601 498.449 930.416 472.952C930.978 467.864 931.254 462.535 929.967 457.535C932.257 451.544 935.476 445.825 938.499 440.181Z"/>
	<defs>
		<linearGradient id="gradient_3" gradientUnits="userSpaceOnUse" x1="666.97479" y1="929.70557" x2="624.09296" y2="681.2652">
			<stop offset="0" stop-color="#BBBABA" stop-opacity="0"/>
			<stop offset="1" stop-color="#BAB9B8" stop-opacity="0.06666667"/>
		</linearGradient>
	</defs>
	<path fill="url(#gradient_3)" transform="matrix(1.00781 0 0 1.00781 0 -1.52588e-05)" d="M935.489 628.437C937.953 628.54 942.645 628.003 944.792 628.913L944.901 629.657C945.07 630.756 944.992 630.325 945.268 631.455C946.799 630.479 946.706 628.175 948.403 627.031C949.4 627.623 949.642 627.898 949.834 629.159C950.36 632.608 945.817 638.057 946.582 640.448C946.108 642.51 943.26 645.107 941.512 646.236C923.698 657.735 892.957 647.279 886.365 674.001C883.901 683.988 885.342 694.553 885.553 704.706C885.649 709.345 885.863 714.159 885.421 718.78C882.366 750.689 859.746 766.3 834.6 781.778C818.855 791.469 802.903 800.296 790.197 814.032C773.398 832.191 764.059 855.862 748.016 874.712C745.741 877.386 743.475 880.597 740.747 882.823C739.771 883.62 738.572 884.039 737.563 884.8C735.78 886.146 734.389 888.081 732.541 889.337C730.364 890.816 727.077 891.753 724.627 892.747C699.696 902.863 674.499 898.167 648.78 903.15C630.962 906.603 614.955 914.37 599.377 923.403C575.175 937.436 552.075 957.793 521.954 950.468C504.675 946.266 489.988 933.958 475.116 924.792C464.858 918.469 454.004 912.871 442.845 908.322C432.887 904.263 421.824 901.711 411.099 900.9C382.567 898.743 359.348 903.844 335.089 883.938C330.863 880.47 325.721 875.784 322.624 871.262L322.967 870.974C324.113 871.111 325.251 871.249 326.393 871.42C329.76 871.925 333.101 871.265 336.535 871.871C343.655 873.13 351.519 871.252 358.727 872.136C363.077 872.67 367.146 876.241 371.698 877.109C377.775 878.269 427.216 880.081 430.537 877.74C436.256 880.759 441.478 885.094 446.713 888.882C458.864 897.675 492.448 923.041 506.08 925.669C510.003 926.425 513.586 925.542 517.455 925.611C549.663 915.283 574.46 882.581 605.909 872.975C616.145 869.849 626.846 870.237 637.416 870.409C656.997 870.728 690.293 872.855 707.891 867.859C711.217 865.104 715.117 863.442 718.26 860.247C731.656 846.627 741.02 824.73 749.32 807.607C753.681 798.609 758.041 788.699 765.105 781.46C771.915 774.481 780.433 769.91 788.822 765.144L814.762 750.172C824.981 744.384 836.588 738.904 845.317 730.975C849.546 727.133 852.511 722.514 855.76 717.893C859.575 708.226 861.283 699.685 862.12 689.377C861.248 682.24 861.691 669.913 861.454 662.051C861.872 655.663 861.495 649.021 861.477 642.605C866.338 639.393 884.444 631.832 886.568 628.49C898.926 628.053 911.287 627.999 923.649 628.318C927.597 628.413 931.539 628.446 935.489 628.437ZM517.455 925.611C518.787 925.72 519.852 925.553 521.138 925.256C524.622 924.454 528.561 927.12 532.1 927.597C536.865 928.24 543.876 926.355 548.461 924.928C564.875 919.819 578.931 909.628 593.676 901.141C606.092 893.995 620.358 887.874 634.225 884.305C640.29 882.744 646.618 881.379 652.869 880.854C673.095 879.154 694.433 881.949 713.497 873.501C716.435 872.199 719.774 870.848 720.966 867.674C718.686 869.277 716.178 870.325 713.467 870.952C710.79 871.571 707.402 872.481 704.934 870.958C704.578 869.182 707.003 869.569 707.891 867.859C690.293 872.855 656.997 870.728 637.416 870.409C626.846 870.237 616.145 869.849 605.909 872.975C574.46 882.581 549.663 915.283 517.455 925.611ZM855.76 717.893C852.511 722.514 849.546 727.133 845.317 730.975C836.588 738.904 824.981 744.384 814.762 750.172L788.822 765.144C780.433 769.91 771.915 774.481 765.105 781.46C758.041 788.699 753.681 798.609 749.32 807.607C741.02 824.73 731.656 846.627 718.26 860.247C715.117 863.442 711.217 865.104 707.891 867.859C707.003 869.569 704.578 869.182 704.934 870.958C707.402 872.481 710.79 871.571 713.467 870.952C716.178 870.325 718.686 869.277 720.966 867.674C722.457 866.08 724.295 864.859 725.847 863.3C731.692 857.428 737.289 850.791 741.695 843.766C745.644 837.471 749.209 830.79 752.39 824.076C757.611 813.057 761.835 802.51 770.485 793.561C775.132 788.752 779.938 784.014 785.33 780.039C807.976 763.341 850.785 744.842 861.047 718.399C861.57 717.051 861.996 715.72 862.337 714.313C862.78 711.373 863.146 708.427 863.504 705.475L863.274 705.353L862.309 707.28C861.747 705.554 862.458 703.254 862.576 701.427C861.52 706.505 859.844 713.603 856.528 717.699L855.76 717.893ZM886.568 628.49C884.444 631.832 866.338 639.393 861.477 642.605C861.495 649.021 861.872 655.663 861.454 662.051C861.691 669.913 861.248 682.24 862.12 689.377C863.273 687.676 862.691 677.243 862.702 674.635L863.984 681.061L863.824 681.479L864.2 682.003L864.086 682.252L864.634 681.619C864.789 679.23 864.774 675.733 865.675 673.515C865.753 673.323 865.84 673.134 865.922 672.943C866.322 670.94 866.732 668.914 867.276 666.944C874.075 642.327 901.768 642.041 920.751 631.845C922.461 630.927 922.845 630.008 923.649 628.318C911.287 627.999 898.926 628.053 886.568 628.49ZM862.702 674.635C862.691 677.243 863.273 687.676 862.12 689.377C861.283 699.685 859.575 708.226 855.76 717.893L856.528 717.699C859.844 713.603 861.52 706.505 862.576 701.427C862.458 703.254 861.747 705.554 862.309 707.28L863.274 705.353L863.504 705.475C863.146 708.427 862.78 711.373 862.337 714.313C864.789 708.718 866.629 679.597 865.922 672.943C865.84 673.134 865.753 673.323 865.675 673.515C864.774 675.733 864.789 679.23 864.634 681.619L864.086 682.252L864.2 682.003L863.824 681.479L863.984 681.061L862.702 674.635Z"/>
	<path fill="#9D9B9B" fill-opacity="0.16862746" transform="matrix(1.00781 0 0 1.00781 0 -1.52588e-05)" d="M862.702 674.635L863.984 681.061L863.824 681.479L864.2 682.003L864.086 682.252L864.634 681.619C864.789 679.23 864.774 675.733 865.675 673.515C865.753 673.323 865.84 673.134 865.922 672.943C866.629 679.597 864.789 708.718 862.337 714.313C862.78 711.373 863.146 708.427 863.504 705.475L863.274 705.353L862.309 707.28C861.747 705.554 862.458 703.254 862.576 701.427C861.52 706.505 859.844 713.603 856.528 717.699L855.76 717.893C859.575 708.226 861.283 699.685 862.12 689.377C863.273 687.676 862.691 677.243 862.702 674.635Z"/>
	<path fill="#9D9B9B" fill-opacity="0.34509805" transform="matrix(1.00781 0 0 1.00781 0 -1.52588e-05)" d="M886.568 628.49C898.926 628.053 911.287 627.999 923.649 628.318C922.845 630.008 922.461 630.927 920.751 631.845C901.768 642.041 874.075 642.327 867.276 666.944C866.732 668.914 866.322 670.94 865.922 672.943C865.84 673.134 865.753 673.323 865.675 673.515C864.774 675.733 864.789 679.23 864.634 681.619L864.086 682.252L864.2 682.003L863.824 681.479L863.984 681.061L862.702 674.635C862.691 677.243 863.273 687.676 862.12 689.377C861.248 682.24 861.691 669.913 861.454 662.051C861.872 655.663 861.495 649.021 861.477 642.605C866.338 639.393 884.444 631.832 886.568 628.49Z"/>
	<defs>
		<linearGradient id="gradient_4" gradientUnits="userSpaceOnUse" x1="742.66107" y1="769.88068" x2="833.14319" y2="799.53845">
			<stop offset="0" stop-color="#9C9B9A" stop-opacity="0.10588235"/>
			<stop offset="1" stop-color="#9C9B9A" stop-opacity="0.25882354"/>
		</linearGradient>
	</defs>
	<path fill="url(#gradient_4)" transform="matrix(1.00781 0 0 1.00781 0 -1.52588e-05)" d="M855.76 717.893L856.528 717.699C859.844 713.603 861.52 706.505 862.576 701.427C862.458 703.254 861.747 705.554 862.309 707.28L863.274 705.353L863.504 705.475C863.146 708.427 862.78 711.373 862.337 714.313C861.996 715.72 861.57 717.051 861.047 718.399C850.785 744.842 807.976 763.341 785.33 780.039C779.938 784.014 775.132 788.752 770.485 793.561C761.835 802.51 757.611 813.057 752.39 824.076C749.209 830.79 745.644 837.471 741.695 843.766C737.289 850.791 731.692 857.428 725.847 863.3C724.295 864.859 722.457 866.08 720.966 867.674C718.686 869.277 716.178 870.325 713.467 870.952C710.79 871.571 707.402 872.481 704.934 870.958C704.578 869.182 707.003 869.569 707.891 867.859C711.217 865.104 715.117 863.442 718.26 860.247C731.656 846.627 741.02 824.73 749.32 807.607C753.681 798.609 758.041 788.699 765.105 781.46C771.915 774.481 780.433 769.91 788.822 765.144L814.762 750.172C824.981 744.384 836.588 738.904 845.317 730.975C849.546 727.133 852.511 722.514 855.76 717.893Z"/>
	<path fill="#197290" transform="matrix(1.00781 0 0 1.00781 0 -1.52588e-05)" d="M166.22 424.913C166.463 408.758 166.303 392.528 166.044 376.372C165.813 361.936 164.017 346.54 167.427 332.382C168.769 326.809 170.624 321.966 174.431 317.588C181.181 309.826 190.712 304.822 199.352 299.499L226.962 282.143C239.567 274.246 253.761 266.656 263.738 255.412C278.163 239.153 285.128 217.505 293.634 197.877C298.087 187.601 303.424 175.394 312.677 168.52C334.731 152.136 398.603 169.491 429.363 158.27C446.359 152.07 461.504 138.41 475.688 127.486C482.511 122.231 489.751 116.591 497.84 113.464C534.561 99.2662 564.877 149.873 596.228 160.161C604.882 163.001 613.939 162.587 622.921 162.556C635.19 162.514 647.449 162.298 659.714 162.025C669.76 161.801 680.026 161.164 690.017 162.412C695.688 163.121 701.408 164.569 706.644 166.884C712.6 169.517 717.438 173.589 721.533 178.619C727.091 185.446 731.059 193.635 734.951 201.492C743.475 218.701 756.177 248.894 768.058 262.601C789.879 287.779 841.827 296.485 853.815 325.809C861.075 343.567 858.344 384.75 857.849 404.832C857.729 409.676 856.62 419.979 858.543 424.215C858.651 424.453 858.777 424.684 858.893 424.918C867.571 424.967 876.317 424.934 884.991 424.656C905.427 424.268 925.92 424.85 946.352 425.265C943.749 430.157 940.686 435.099 938.499 440.181C935.476 445.825 932.257 451.544 929.967 457.535C931.254 462.535 930.978 467.864 930.416 472.952C927.601 498.449 911.285 516.319 907.828 538.279C906.644 545.8 911.774 551.19 911.578 558.227C912.477 565.878 924.987 590.362 929.73 596.623C931.175 599.721 932.974 605.336 935.266 607.725C938.249 614.311 941.7 621.047 943.937 627.917C941.142 628.07 938.265 628.105 935.489 628.437C931.539 628.446 927.597 628.413 923.649 628.318C911.287 627.999 898.926 628.053 886.568 628.49C884.444 631.832 866.338 639.393 861.477 642.605C861.495 649.021 861.872 655.663 861.454 662.051C861.691 669.913 861.248 682.24 862.12 689.377C861.283 699.685 859.575 708.226 855.76 717.893C852.511 722.514 849.546 727.133 845.317 730.975C836.588 738.904 824.981 744.384 814.762 750.172L788.822 765.144C780.433 769.91 771.915 774.481 765.105 781.46C758.041 788.699 753.681 798.609 749.32 807.607C741.02 824.73 731.656 846.627 718.26 860.247C715.117 863.442 711.217 865.104 707.891 867.859C690.293 872.855 656.997 870.728 637.416 870.409C626.846 870.237 616.145 869.849 605.909 872.975C574.46 882.581 549.663 915.283 517.455 925.611C513.586 925.542 510.003 926.425 506.08 925.669C492.448 923.041 458.864 897.675 446.713 888.882C441.478 885.094 436.256 880.759 430.537 877.74C416.327 867.71 376.397 871.128 358.234 871.18C345.659 871.215 333.225 871.028 320.681 869.938L319.798 863.899C300.346 856.264 286.469 804.371 280.048 801.976C273.654 799.633 273.445 794.568 269.988 789.503C269.883 789.348 269.774 789.197 269.666 789.043C267.808 784.093 262.201 778.585 258.141 775.355C249.771 768.695 239.814 763.744 230.5 758.55C220.386 752.91 210.352 747.074 200.097 741.695C194.654 737.282 192.475 739.107 189.127 731.45C188.227 729.438 179.715 723.9 177.474 721.785C173.091 717.647 170.123 713.369 168.217 707.623C163.501 693.409 165.81 659.319 165.417 642.593L165.065 642.656C163.608 644.003 162.761 646.976 161.964 648.813C156.203 648.908 150.366 648.101 144.592 647.989C134.09 647.785 119.999 650.18 110.989 643.346C105.954 640.246 101.666 634.724 98.7789 629.639L97.8306 627.997C92.3732 627.903 86.9012 627.972 81.4422 627.969C86.9676 614.277 93.6759 600.96 99.9079 587.577C109.55 566.871 119.089 546.123 129.14 525.612C118.92 502.38 106.968 479.903 95.5942 457.219C90.344 446.748 84.4508 436.228 80.2571 425.291C100.326 425.773 120.396 425.229 140.464 425.014C149.023 424.922 157.67 424.58 166.22 424.913ZM97.8306 627.997L98.7789 629.639C101.666 634.724 105.954 640.246 110.989 643.346C119.999 650.18 134.09 647.785 144.592 647.989C150.366 648.101 156.203 648.908 161.964 648.813C162.761 646.976 163.608 644.003 165.065 642.656L165.417 642.593C165.689 637.494 165.46 632.223 165.47 627.109C142.925 626.342 120.371 627.953 97.8306 627.997ZM861.351 628.374C861.582 633.149 861.644 637.825 861.477 642.605C866.338 639.393 884.444 631.832 886.568 628.49L861.351 628.374Z"/>
	<path fill="#A18444" transform="matrix(1.00781 0 0 1.00781 0 -1.52588e-05)" d="M799.006 631.67C801.349 629.056 802.913 628.424 806.448 628.192C809.632 627.983 813.013 628.333 816.202 628.506C815.271 630.636 814.445 632.886 813.104 634.795C808.738 633.679 804.153 633.302 799.686 632.748L799.006 631.67Z"/>
	<path fill="#B9B8B7" transform="matrix(1.00781 0 0 1.00781 0 -1.52588e-05)" d="M857.388 646.543L857.299 646.079C856.498 641.731 855.402 633.524 858.367 629.868C859.295 628.723 859.945 628.572 861.351 628.374C861.582 633.149 861.644 637.825 861.477 642.605C861.495 649.021 861.872 655.663 861.454 662.051C860.777 657.531 862.067 652.281 860.222 648.052C859.084 647.051 858.857 646.838 857.388 646.543Z"/>
	<path fill="#797773" transform="matrix(1.00781 0 0 1.00781 0 -1.52588e-05)" d="M206.37 627.501C210.781 627.111 215.962 626.325 220.303 627.415C223.303 628.168 224.737 629.291 226.334 631.912C220.799 632.452 215.158 632.772 209.827 634.453C208.778 632.089 207.549 629.803 206.37 627.501Z"/>
	<defs>
		<linearGradient id="gradient_5" gradientUnits="userSpaceOnUse" x1="873.21088" y1="637.80115" x2="871.02783" y2="627.66357">
			<stop offset="0" stop-color="#757474" stop-opacity="0.65098041"/>
			<stop offset="1" stop-color="#757475" stop-opacity="0.69411767"/>
		</linearGradient>
	</defs>
	<path fill="url(#gradient_5)" transform="matrix(1.00781 0 0 1.00781 0 -1.52588e-05)" d="M861.351 628.374L886.568 628.49C884.444 631.832 866.338 639.393 861.477 642.605C861.644 637.825 861.582 633.149 861.351 628.374Z"/>
	<path fill="#E1D5A8" transform="matrix(1.00781 0 0 1.00781 0 -1.52588e-05)" d="M295.778 737.93L305.665 748.32C302.886 752.578 299.694 756.165 295.383 758.926C291.094 755.473 287.274 751.601 283.45 747.656C287.795 744.628 291.821 741.455 295.778 737.93Z"/>
	<path fill="#FEFEFE" transform="matrix(1.00781 0 0 1.00781 0 -1.52588e-05)" d="M189.127 731.45C189.537 731.416 189.951 731.273 190.355 731.348C192.738 731.794 247.096 763.364 252.895 767.041C256.52 769.339 260.102 771.947 263.37 774.727C270.152 780.494 277.667 792.605 280.322 800.929L280.048 801.976C273.654 799.633 273.445 794.568 269.988 789.503C269.883 789.348 269.774 789.197 269.666 789.043C267.808 784.093 262.201 778.585 258.141 775.355C249.771 768.695 239.814 763.744 230.5 758.55C220.386 752.91 210.352 747.074 200.097 741.695C194.654 737.282 192.475 739.107 189.127 731.45Z"/>
	<path fill="#9D9B9B" transform="matrix(1.00781 0 0 1.00781 0 -1.52588e-05)" d="M896.024 525.276C901.933 513.636 907.934 502.027 913.664 490.298C919.033 479.31 924.11 468.284 929.967 457.535C931.254 462.535 930.978 467.864 930.416 472.952C927.601 498.449 911.285 516.319 907.828 538.279C906.644 545.8 911.774 551.19 911.578 558.227C904.154 548.373 900.184 536.749 896.024 525.276Z"/>
	<defs>
		<linearGradient id="gradient_6" gradientUnits="userSpaceOnUse" x1="705.15863" y1="783.12592" x2="710.81873" y2="745.71936">
			<stop offset="0" stop-color="#C9BFA6"/>
			<stop offset="1" stop-color="#EEEBDF"/>
		</linearGradient>
	</defs>
	<path fill="url(#gradient_6)" transform="matrix(1.00781 0 0 1.00781 0 -1.52588e-05)" d="M728.516 739.308C733.743 739.603 748.494 737.708 751.438 738.552C748.729 741.609 745.926 744.415 742.899 747.158C740.886 749.343 738.943 751.556 736.58 753.374L735.227 754.481C725.618 764.354 710.909 775.37 699.23 782.861C694.131 779.194 685.45 781.311 679.366 778.768C692.694 770.909 704.646 760.772 716.381 750.767C720.323 746.847 724.454 743.104 728.516 739.308Z"/>
	<path fill="#CDF4FE" transform="matrix(1.00781 0 0 1.00781 0 -1.52588e-05)" d="M728.516 739.308C733.743 739.603 748.494 737.708 751.438 738.552C748.729 741.609 745.926 744.415 742.899 747.158C740.886 749.343 738.943 751.556 736.58 753.374L735.227 754.481C734.737 751.312 734.398 750.461 731.866 748.475C729.633 749.166 727.613 749.683 725.274 749.921C722.326 750.5 719.374 751.346 716.381 750.767C720.323 746.847 724.454 743.104 728.516 739.308Z"/>
	<path fill="#FEFEFE" transform="matrix(1.00781 0 0 1.00781 0 -1.52588e-05)" d="M725.274 749.921C729.429 747.952 738.45 745.665 742.899 747.158C740.886 749.343 738.943 751.556 736.58 753.374L735.227 754.481C734.737 751.312 734.398 750.461 731.866 748.475C729.633 749.166 727.613 749.683 725.274 749.921Z"/>
	<path fill="#E1D5A8" transform="matrix(1.00781 0 0 1.00781 0 -1.52588e-05)" d="M731.866 748.475C733.615 748.132 734.82 747.99 736.575 748.352C737.509 749.953 735.803 751.48 736.58 753.374L735.227 754.481C734.737 751.312 734.398 750.461 731.866 748.475Z"/>
	<path fill="#B9B8B7" fill-opacity="0.34117648" transform="matrix(1.00781 0 0 1.00781 0 -1.52588e-05)" d="M97.8306 627.997C120.371 627.953 142.925 626.342 165.47 627.109C165.46 632.223 165.689 637.494 165.417 642.593L165.065 642.656C163.608 644.003 162.761 646.976 161.964 648.813C156.203 648.908 150.366 648.101 144.592 647.989C134.09 647.785 119.999 650.18 110.989 643.346C105.954 640.246 101.666 634.724 98.7789 629.639L97.8306 627.997ZM98.7789 629.639C101.666 634.724 105.954 640.246 110.989 643.346L111.555 642.386C110.099 641.192 108.614 640.032 107.14 638.862L107.273 638.248C109.013 638.061 109.426 640.66 111.284 640.732C110.575 638.304 104.495 633.063 102.332 631.576L102.387 631.84C100.829 631.125 100.39 630.132 98.7789 629.639Z"/>
	<path fill="#B9B8B7" fill-opacity="0.42352942" transform="matrix(1.00781 0 0 1.00781 0 -1.52588e-05)" d="M98.7789 629.639C100.39 630.132 100.829 631.125 102.387 631.84L102.332 631.576C104.495 633.063 110.575 638.304 111.284 640.732C109.426 640.66 109.013 638.061 107.273 638.248L107.14 638.862C108.614 640.032 110.099 641.192 111.555 642.386L110.989 643.346C105.954 640.246 101.666 634.724 98.7789 629.639Z"/>
	<path fill="#E1D5A8" transform="matrix(1.00781 0 0 1.00781 0 -1.52588e-05)" d="M799.686 632.748C804.153 633.302 808.738 633.679 813.104 634.795C800.681 668.678 783.358 698.598 761.535 727.299C758.479 731.318 754.469 734.59 751.438 738.552C748.494 737.708 733.743 739.603 728.516 739.308C733.523 734.441 738.52 729.57 743.431 724.606C748.823 720.029 753.359 714.047 757.653 708.441C775.568 685.049 788.309 659.82 799.686 632.748Z"/>
	<path fill="#CDF4FE" transform="matrix(1.00781 0 0 1.00781 0 -1.52588e-05)" d="M226.334 631.912L226.948 635.175C240.9 674.54 268.057 707.465 295.778 737.93C291.821 741.455 287.795 744.628 283.45 747.656C249.081 713.038 229.495 678.659 209.827 634.453C215.158 632.772 220.799 632.452 226.334 631.912Z"/>
	<path fill="#FEFEFE" transform="matrix(1.00781 0 0 1.00781 0 -1.52588e-05)" d="M857.388 646.543C858.857 646.838 859.084 647.051 860.222 648.052C862.067 652.281 860.777 657.531 861.454 662.051C861.691 669.913 861.248 682.24 862.12 689.377C861.283 699.685 859.575 708.226 855.76 717.893C852.511 722.514 849.546 727.133 845.317 730.975C836.588 738.904 824.981 744.384 814.762 750.172L788.822 765.144C780.433 769.91 771.915 774.481 765.105 781.46C758.041 788.699 753.681 798.609 749.32 807.607C741.02 824.73 731.656 846.627 718.26 860.247C715.117 863.442 711.217 865.104 707.891 867.859C690.293 872.855 656.997 870.728 637.416 870.409C626.846 870.237 616.145 869.849 605.909 872.975C574.46 882.581 549.663 915.283 517.455 925.611C513.586 925.542 510.003 926.425 506.08 925.669C492.448 923.041 458.864 897.675 446.713 888.882C441.478 885.094 436.256 880.759 430.537 877.74C416.327 867.71 376.397 871.128 358.234 871.18C345.659 871.215 333.225 871.028 320.681 869.938L319.798 863.899C340.206 871.109 366.723 867.974 388.12 867.121C398.496 866.708 409.011 866.326 419.198 868.73C438.452 873.272 463.956 894.649 480.532 906.599C488.414 912.281 496.814 919.001 506.515 921.094C525 925.083 555.292 898.133 569.899 887.867C579.521 881.105 589.79 874.171 600.924 870.225C625.013 861.688 660.792 867.275 686.509 867.224C692.64 867.212 699.438 866.761 705.1 864.199C732.403 851.847 740.067 798.014 763.709 777.304C771.624 770.369 781.557 765.481 790.637 760.23C800.219 754.689 809.697 748.98 819.322 743.509C828.225 738.449 837.807 733.328 845.016 725.944C858.338 712.298 857.591 691.372 857.527 673.677L857.388 646.543Z"/>
	<path fill="#FEFEFE" transform="matrix(1.00781 0 0 1.00781 0 -1.52588e-05)" d="M634.523 462.706L664.024 462.984C664.118 473.634 665.253 587.812 664.505 589.769C664.39 590.067 664.112 590.273 663.915 590.524L633.994 590.033C632.955 575.134 633.862 560.261 633.968 545.355L634.523 462.706Z"/>
	<defs>
		<linearGradient id="gradient_7" gradientUnits="userSpaceOnUse" x1="321.86499" y1="331.508" x2="268.39236" y2="297.03308">
			<stop offset="0" stop-color="#BFB396"/>
			<stop offset="1" stop-color="#ECE2C7"/>
		</linearGradient>
	</defs>
	<path fill="url(#gradient_7)" transform="matrix(1.00781 0 0 1.00781 0 -1.52588e-05)" d="M398.628 210.016C397.505 215.406 395.27 220.374 392.411 225.076C391.779 227.078 391.537 228.829 391.452 230.925L390.884 231.479C385.467 233.595 380.254 236.261 374.822 238.298C360.689 246.152 346.646 253.877 333.328 263.09C289.443 293.447 254.921 336.075 232.204 384.224C226.586 396.13 220.112 408.303 216.491 421C216.157 422.172 215.863 423.288 215.782 424.512L200.986 424.494C204.7 414.652 207.951 404.636 211.726 394.817C239.996 321.278 297.993 262.399 366.561 225.171C376.949 219.532 387.831 214.806 398.628 210.016Z"/>
	<path fill="#AA9C7E" transform="matrix(1.00781 0 0 1.00781 0 -1.52588e-05)" d="M392.411 225.076C391.779 227.078 391.537 228.829 391.452 230.925L390.884 231.479C385.467 233.595 380.254 236.261 374.822 238.298C376.12 236.877 377.964 235.97 379.457 234.723C380.197 232.547 380.976 230.156 382.577 228.445C385.166 225.679 388.818 225.078 392.411 225.076Z"/>
	<path fill="#FEFEFE" transform="matrix(1.00781 0 0 1.00781 0 -1.52588e-05)" d="M246.984 463.502L277.017 463.504L277.026 567.489C289.798 567.865 302.549 567.992 315.327 567.989C315.015 575.308 314.951 582.653 314.776 589.977C305.859 590.589 296.751 589.887 287.809 589.812C274.212 589.699 260.597 589.928 247 590.032C245.674 574.501 246.422 558.765 246.453 543.194L246.984 463.502Z"/>
	<path fill="#FEFEFE" transform="matrix(1.00781 0 0 1.00781 0 -1.52588e-05)" d="M473.243 462.762C486.751 462.327 500.654 461.881 514.131 463.036C514.178 470.702 514.068 478.376 514.029 486.043C505.108 485.256 495.904 484.959 487.008 486.081L487.432 590.009L472.25 590.018L457.039 589.997C455.035 577.017 456.341 564.054 456.459 551.007L456.953 485.513L432.165 485.507C430.804 478.286 431.391 470.57 431.525 463.256C445.402 462.778 459.356 462.907 473.243 462.762Z"/>
	<defs>
		<linearGradient id="gradient_8" gradientUnits="userSpaceOnUse" x1="492.11713" y1="831.38458" x2="498.14331" y2="762.9436">
			<stop offset="0" stop-color="#7F6B3B"/>
			<stop offset="1" stop-color="#CAC1A7"/>
		</linearGradient>
	</defs>
	<path fill="url(#gradient_8)" transform="matrix(1.00781 0 0 1.00781 0 -1.52588e-05)" d="M305.665 748.32C315.389 757.345 325.988 768.224 338.09 773.964C379.02 800.251 419.16 816.484 467.208 824.313C504.65 830.413 539.154 829.936 576.24 821.873C613.285 813.818 647.54 799.316 679.366 778.768C685.45 781.311 694.131 779.194 699.23 782.861C666.028 806.005 629.199 822.802 590.113 833.183C582.023 835.332 573.186 837.86 564.855 838.77C558.862 840.765 548.95 841.53 542.554 842.095C500.46 845.814 456.707 840.397 416.243 828.501C407.946 826.062 399.347 823.56 391.458 819.994C354.212 803.298 326.619 784.932 295.383 758.926C299.694 756.165 302.886 752.578 305.665 748.32Z"/>
	<path fill="#776941" transform="matrix(1.00781 0 0 1.00781 0 -1.52588e-05)" d="M391.458 819.994C396.381 817.438 408.333 820.808 413.606 821.692C427.189 823.97 440.937 824.01 454.57 825.736C459.123 826.312 463.248 828.572 467.818 828.953C470.94 829.213 486.874 829.119 487.374 829.26C489.312 829.806 489.964 830.642 492.167 830.532C499.838 830.148 508.917 831.022 516.458 832.506C519.926 833.189 523.305 834.491 526.837 834.809C532.099 835.283 564.256 836.326 566.522 837.895C566.366 837.898 566.21 837.899 566.054 837.903C565.252 837.929 564.461 838.013 563.663 838.092L563.54 838.39L564.855 838.77C558.862 840.765 548.95 841.53 542.554 842.095C500.46 845.814 456.707 840.397 416.243 828.501C407.946 826.062 399.347 823.56 391.458 819.994Z"/>
	<path fill="#FEFEFE" transform="matrix(1.00781 0 0 1.00781 0 -1.52588e-05)" d="M713.915 462.241C729.271 462.053 751.415 461.69 763.51 472.778C770.95 479.597 773.309 489.762 773.599 499.489C773.942 511.008 772.599 524.243 764.159 532.917C754.05 543.306 737.208 543.559 723.725 543.496C723.186 549.35 723.018 555.252 723.239 561.125C723.615 570.532 723.751 579.944 724.046 589.354C714.16 591.002 703.062 590.051 693.032 590.033C691.939 574.365 692.86 558.682 692.86 543L692.487 463.036C699.617 462.606 706.776 462.47 713.915 462.241Z"/>
	<path fill="#197290" transform="matrix(1.00781 0 0 1.00781 0 -1.52588e-05)" d="M724.001 485.083C728.659 484.407 733.599 485.139 737.464 487.976C741.124 490.663 742.865 494.793 743.42 499.195C744.289 506.083 742.774 512.864 738.57 518.432C734.216 522.224 729.563 522.11 724.08 522.35C723.636 512.789 722.09 493.779 724.001 485.083Z"/>
	<path fill="#FEFEFE" transform="matrix(1.00781 0 0 1.00781 0 -1.52588e-05)" d="M543.381 462.999L588.781 462.988L611.789 590.002L582.327 590.011C580.496 584.304 580.047 578.18 579.358 572.252C579.028 569.651 578.374 567.205 577.685 564.684C569.289 563.645 561.833 562.677 553.446 564.557C551.091 573.021 550.25 581.609 549.376 590.313C539.413 589.717 529.334 590.016 519.361 590.174C522.946 575.938 524.653 561.711 527.347 547.332L543.381 462.999Z"/>
	<path fill="#197290" transform="matrix(1.00781 0 0 1.00781 0 -1.52588e-05)" d="M562.83 497.928L565.479 481.181C566.365 485.299 567.173 489.38 566.807 493.611L563.683 497.984C563.398 497.981 563.077 498.07 562.83 497.928Z"/>
	<path fill="#4D95B2" transform="matrix(1.00781 0 0 1.00781 0 -1.52588e-05)" d="M562.83 497.928C563.077 498.07 563.398 497.981 563.683 497.984L566.807 493.611C569.952 509.8 571.145 526.238 573.988 542.456C569.82 542.681 560.682 544.293 557.473 541.173C556.703 540.423 556.505 539.483 556.59 538.447C556.713 536.941 556.805 535.036 557.284 533.609C557.617 527.542 558.646 521.535 559.652 515.551C559.913 510.119 561.306 503.169 562.83 497.928Z"/>
	<path fill="#197290" transform="matrix(1.00781 0 0 1.00781 0 -1.52588e-05)" d="M559.652 515.551C561.786 518.922 560.068 528.421 559.091 532.209C558.896 532.963 558.644 533.615 558.349 534.334L557.692 534.58L557.284 533.609C557.617 527.542 558.646 521.535 559.652 515.551Z"/>
	<path fill="#FEFEFE" transform="matrix(1.00781 0 0 1.00781 0 -1.52588e-05)" d="M369.812 461.196C381.917 460.33 395.611 461.825 405.666 469.211C413.222 474.761 416.458 482.533 417.735 491.519C419.473 503.751 418.256 516.354 418.072 528.651C417.92 538.89 418.786 551.688 416.69 561.59C415.456 567.417 412.823 573.303 409.211 578.046C403.073 586.108 393.503 590.554 383.6 591.86C382.859 591.992 382.119 592.107 381.372 592.203C369.411 593.75 356.479 590.811 346.883 583.343C338.725 576.994 335.153 567.964 333.893 557.946C332.745 548.824 333.465 539.456 333.468 530.28C333.471 517.198 332.099 502.638 334.782 489.789C335.958 484.156 338.138 478.828 341.738 474.302C348.818 465.401 358.903 462.383 369.812 461.196Z"/>
	<path fill="#197290" transform="matrix(1.00781 0 0 1.00781 0 -1.52588e-05)" d="M375.85 481.449C380.352 482.773 383.136 484.06 385.918 487.931C382.42 487.782 378.765 486.558 375.363 485.705C373.232 486.622 371.024 487.484 369.36 489.159C368.183 490.344 364.78 495.972 363.708 496.213C363.553 495.363 363.394 494.517 363.267 493.662C363.82 491.259 364.411 488.925 365.789 486.841C368.248 483.121 371.741 482.193 375.85 481.449Z"/>
	<path fill="#4D95B2" transform="matrix(1.00781 0 0 1.00781 0 -1.52588e-05)" d="M375.363 485.705C378.765 486.558 382.42 487.782 385.918 487.931C387.095 490.404 387.176 493.964 387.33 496.689C387.834 505.606 387.284 514.59 387.318 523.517C387.361 534.686 388.109 546.066 387.309 557.208C387.156 559.338 386.825 561.53 386.096 563.544C385.065 566.397 383.138 568.468 380.352 569.684C377.042 571.128 372.897 571.329 369.585 569.798C367.166 568.679 365.482 566.688 364.704 564.153C362.373 556.562 362.121 503.024 363.267 493.662C363.394 494.517 363.553 495.363 363.708 496.213C364.78 495.972 368.183 490.344 369.36 489.159C371.024 487.484 373.232 486.622 375.363 485.705Z"/>
	<path fill="#7DCBE0" transform="matrix(1.00781 0 0 1.00781 0 -1.52588e-05)" d="M390.884 231.479C404.841 228.624 410.635 229.972 424.088 234.304C428.362 235.68 432.435 236.969 436.923 237.503C429.005 240.409 409.628 244.401 403.949 248.638C382.445 257.876 359.783 267.146 340.204 280.104L344.035 284.439C344.831 284.468 345.464 284.416 346.19 284.052C350.987 281.644 355.487 278.161 360.179 275.475C364.608 272.94 369.019 270.226 373.542 267.871C376.136 266.521 378.802 265.52 381.325 264.011L382.023 264.447L382.442 263.557L382.846 263.391C387.005 266.175 391.434 268.584 395.416 271.615C405.824 279.537 415.763 292.108 421.563 303.755C422.979 306.599 423.692 309.453 427.35 308.735C428.629 308.484 429.878 308.069 431.156 307.839C430.907 308.02 430.66 308.206 430.408 308.383C426.975 310.787 421.788 312.396 417.884 314.019C410.701 317.006 403.401 320.002 396.59 323.785C368.119 339.597 330.496 373.535 313.471 401.552C312.09 403.824 310.417 406.103 309.291 408.507C306.382 413.21 304.195 418.354 302.019 423.428C305.084 423.446 308.271 423.254 311.275 423.919C301.889 423.78 292.615 424.523 283.253 424.578L215.782 424.512C215.863 423.288 216.157 422.172 216.491 421C220.112 408.303 226.586 396.13 232.204 384.224C254.921 336.075 289.443 293.447 333.328 263.09C346.646 253.877 360.689 246.152 374.822 238.298C380.254 236.261 385.467 233.595 390.884 231.479Z"/>
	<defs>
		<linearGradient id="gradient_9" gradientUnits="userSpaceOnUse" x1="581.38385" y1="298.56442" x2="470.08029" y2="499.85242">
			<stop offset="0" stop-color="#73BBD0"/>
			<stop offset="1" stop-color="#CAF1F5"/>
		</linearGradient>
	</defs>
	<path fill="url(#gradient_9)" transform="matrix(1.00781 0 0 1.00781 0 -1.52588e-05)" d="M431.156 307.839C462.773 297.445 495.332 293.74 528.505 294.91C538.434 295.26 548.234 295.814 558.025 297.659C579.17 301.644 600.776 309.701 619.942 319.395C625.84 322.378 632.191 325.392 637.396 329.487C646.404 336.575 653.686 345.847 662.03 353.696C670.869 362.009 679.939 370.128 688.966 378.238C694.137 382.883 699.969 387.25 704.254 392.763C709.097 398.996 710.289 407.177 714.877 413.553C717.357 417 723.18 419.525 724.787 422.98C723.909 423.78 722.907 423.737 721.758 423.945C697.514 424.484 673.25 424.006 649 423.997L505.45 424.019L367.968 424.68C354.168 424.648 340.417 425.133 326.606 424.741C321.494 424.55 316.382 424.207 311.275 423.919C308.271 423.254 305.084 423.446 302.019 423.428C304.195 418.354 306.382 413.21 309.291 408.507C310.417 406.103 312.09 403.824 313.471 401.552C330.496 373.535 368.119 339.597 396.59 323.785C403.401 320.002 410.701 317.006 417.884 314.019C421.788 312.396 426.975 310.787 430.408 308.383C430.66 308.206 430.907 308.02 431.156 307.839Z"/>
	<path fill="#197290" transform="matrix(1.00781 0 0 1.00781 0 -1.52588e-05)" d="M513.304 319.638C518.832 324.331 525.058 342.392 525.657 349.624C525.716 350.331 525.696 350.575 525.692 351.334L524.83 350.978C523.105 347.522 522.053 343.384 520.724 339.741C518.276 333.03 515.709 326.365 513.304 319.638Z"/>
	<path fill="#E1D5A8" transform="matrix(1.00781 0 0 1.00781 0 -1.52588e-05)" d="M582.76 367.029C584.845 370.846 586.801 374.708 587.964 378.919C584.091 379.023 579.843 379.305 576.046 378.539C578.192 374.659 580.253 370.69 582.76 367.029Z"/>
	<path fill="#EBCF74" transform="matrix(1.00781 0 0 1.00781 0 -1.52588e-05)" d="M537.249 404.62C534.916 397.378 532.024 389.352 531.118 381.794C530.968 380.545 530.718 377.579 531.477 376.655L532.518 378.868C534.177 388.518 537.204 398.118 539.451 407.667C533.546 404.919 527.952 401.845 522.393 398.454C519.059 396.42 515.475 393.718 511.964 392.138C511.368 391.87 510.86 391.839 510.22 391.779C510.719 391.375 511.093 391.307 511.701 391.134C520.365 393.546 529.456 400.102 537.249 404.62Z"/>
	<path fill="#EBCF74" transform="matrix(1.00781 0 0 1.00781 0 -1.52588e-05)" d="M492.903 375.833L493.95 375.691C495.131 378.53 488.868 399.561 488.094 403.862C494.838 399.849 501.994 394.843 509.395 392.258C503.53 397.699 489.759 404.538 482.314 408.339C486.253 397.55 490.111 386.994 492.903 375.833Z"/>
	<path fill="#D2A847" transform="matrix(1.00781 0 0 1.00781 0 -1.52588e-05)" d="M482.851 369.625C478.298 366.32 470.76 362.006 468.078 356.96C467.581 356.024 467.532 355.971 467.843 354.923C469.293 354.248 469.795 354.367 471.354 354.477C473.579 355.888 475.777 357.284 478.129 358.481C480.425 360.179 487.268 363.966 487.688 366.54C487.133 366.996 486.66 367.447 486.004 367.748C484.953 368.358 483.846 368.929 482.851 369.625Z"/>
	<path fill="#D2A847" transform="matrix(1.00781 0 0 1.00781 0 -1.52588e-05)" d="M570.204 397.711C574.28 395.256 579.233 391.791 584.317 392.957C585.474 393.223 585.959 393.639 586.631 394.57C589.267 394.684 591.773 395.409 594.107 396.633L594.666 398.025L595.334 396.182C596.044 397.784 596.346 399.255 596.611 400.981C596.318 401.694 596.383 402.019 595.621 402.36C593.4 403.352 590.048 402.027 587.942 401.039C586.024 400.14 584.296 398.925 582.585 397.69C579.153 399.763 575.607 402.326 571.539 402.78C570.144 402.296 570.212 402.36 569.534 401.049C569.662 399.846 569.804 398.864 570.204 397.711Z"/>
	<path fill="#E1D5A8" transform="matrix(1.00781 0 0 1.00781 0 -1.52588e-05)" d="M586.631 394.57C589.267 394.684 591.773 395.409 594.107 396.633L594.666 398.025C593.979 399.283 593.851 399.27 592.53 399.872C591.53 399.829 590.817 399.72 589.961 399.2C588.012 398.017 587.161 396.762 586.631 394.57Z"/>
	<path fill="#CDF4FE" transform="matrix(1.00781 0 0 1.00781 0 -1.52588e-05)" d="M309.291 408.507C311.702 409.305 313.513 412.281 315.491 413.885C320.273 417.761 327.794 418.608 331.857 423.371C331.305 423.775 331.238 423.99 330.534 423.969C328.937 423.921 328.058 424.086 326.606 424.741C321.494 424.55 316.382 424.207 311.275 423.919C308.271 423.254 305.084 423.446 302.019 423.428C304.195 418.354 306.382 413.21 309.291 408.507Z"/>
	<path fill="#EBCF74" transform="matrix(1.00781 0 0 1.00781 0 -1.52588e-05)" d="M438.289 374.554L441.634 365.573C443.812 370.059 445.246 374.854 446.802 379.582C450.097 379.39 453.381 378.662 456.143 380.855C456.707 382.223 456.756 383.038 456.106 384.409C455.049 386.637 452.714 388.686 450.985 390.438C452.157 394.792 453.512 399.171 454.44 403.581C452.944 402.702 451.357 401.877 449.916 400.916C447.985 396.735 444.47 393.411 442.702 389.064C440.798 384.384 440.386 379.194 438.289 374.554Z"/>
	<path fill="#D2A847" transform="matrix(1.00781 0 0 1.00781 0 -1.52588e-05)" d="M438.289 374.554C440.386 379.194 440.798 384.384 442.702 389.064C444.47 393.411 447.985 396.735 449.916 400.916C447.427 400.049 445.021 398.743 442.637 397.617C440.15 398.754 436.115 401.054 433.321 400.218C432.138 399.864 431.345 399.426 430.857 398.23C429.735 395.481 431.884 391.536 432.928 389.027C429.568 385.995 426.053 383.253 422.462 380.507C426.292 380.501 430.151 380.136 433.974 379.888C435.545 378.249 436.892 376.345 438.289 374.554Z"/>
	<path fill="#EBCF74" transform="matrix(1.00781 0 0 1.00781 0 -1.52588e-05)" d="M576.046 378.539C579.843 379.305 584.091 379.023 587.964 378.919L598.102 380.045C599.566 380.189 600.383 380.328 601.7 381.068C602.208 382.199 602.277 382.397 601.706 383.621C600.679 385.825 597.06 388.395 594.991 389.604C594.34 391.911 594.827 393.893 595.334 396.182L594.666 398.025L594.107 396.633C591.773 395.409 589.267 394.684 586.631 394.57C585.959 393.639 585.474 393.223 584.317 392.957C579.233 391.791 574.28 395.256 570.204 397.711L572.597 390.998C569.694 387.277 566.294 383.836 563.152 380.311C567.443 379.621 571.73 379.046 576.046 378.539Z"/>
	<path fill="#D2A847" transform="matrix(1.00781 0 0 1.00781 0 -1.52588e-05)" d="M598.102 380.045C599.566 380.189 600.383 380.328 601.7 381.068C602.208 382.199 602.277 382.397 601.706 383.621C600.679 385.825 597.06 388.395 594.991 389.604C593.914 387.024 592.356 384.741 590.858 382.391L598.102 380.045Z"/>
	<path fill="#E1D5A8" transform="matrix(1.00781 0 0 1.00781 0 -1.52588e-05)" d="M499.625 350.64C504.242 342.424 505.725 332.798 509.77 324.303C510.562 322.64 511.552 320.248 513.304 319.638C515.709 326.365 518.276 333.03 520.724 339.741C522.053 343.384 523.105 347.522 524.83 350.978C520.931 352.421 516.274 352.971 512.18 353.687C500.829 355.672 489.51 356.883 478.129 358.481C475.777 357.284 473.579 355.888 471.354 354.477C480.387 354.934 491.03 353.197 499.625 350.64Z"/>
	<defs>
		<linearGradient id="gradient_10" gradientUnits="userSpaceOnUse" x1="516.83728" y1="404.18436" x2="512.88342" y2="371.30804">
			<stop offset="0" stop-color="#9F762B"/>
			<stop offset="1" stop-color="#CFB05A"/>
		</linearGradient>
	</defs>
	<path fill="url(#gradient_10)" transform="matrix(1.00781 0 0 1.00781 0 -1.52588e-05)" d="M486.004 367.748C485.842 368.549 485.713 369.337 485.615 370.148C486.268 371.095 487.039 372.395 488.093 372.933C489.806 373.807 491.518 373.767 493.388 373.71C497.979 373.57 537.622 369.296 540.548 368.244C542.675 367.479 543.882 365.034 546.187 364.394C546.471 364.316 546.76 364.26 547.046 364.194C541.802 368.965 536.897 373.23 532.518 378.868L531.477 376.655C530.718 377.579 530.968 380.545 531.118 381.794C532.024 389.352 534.916 397.378 537.249 404.62C529.456 400.102 520.365 393.546 511.701 391.134C511.093 391.307 510.719 391.375 510.22 391.779L509.395 392.258C501.994 394.843 494.838 399.849 488.094 403.862C488.868 399.561 495.131 378.53 493.95 375.691L492.903 375.833C489.057 375.167 485.82 371.976 482.851 369.625C483.846 368.929 484.953 368.358 486.004 367.748Z"/>
	<path fill="#EBCF74" transform="matrix(1.00781 0 0 1.00781 0 -1.52588e-05)" d="M524.83 350.978L525.692 351.334C536.834 353.376 547.635 354.594 558.974 354.478C555.72 357.078 550.524 362.639 547.046 364.194C546.76 364.26 546.471 364.316 546.187 364.394C543.882 365.034 542.675 367.479 540.548 368.244C537.622 369.296 497.979 373.57 493.388 373.71C491.518 373.767 489.806 373.807 488.093 372.933C487.039 372.395 486.268 371.095 485.615 370.148C485.713 369.337 485.842 368.549 486.004 367.748C486.66 367.447 487.133 366.996 487.688 366.54C487.268 363.966 480.425 360.179 478.129 358.481C489.51 356.883 500.829 355.672 512.18 353.687C516.274 352.971 520.931 352.421 524.83 350.978Z"/>
	<path fill="#4D95B2" transform="matrix(1.00781 0 0 1.00781 0 -1.52588e-05)" d="M401.521 208.537C422.914 197.349 478.66 186.638 502.463 188.385C507.063 188.368 511.698 188.233 516.292 188.448C539.754 188.842 561.697 191.771 584.461 197.42C592.314 198.263 601.018 201.023 608.438 203.746C634.903 213.496 659.748 226.214 683.764 240.946C688.656 243.948 695.173 247.369 699.144 251.496C727.606 269.562 749.478 294.659 769.635 321.335C774.486 327.755 780.447 334.583 783.755 341.911C789.983 351.491 796.11 361.346 800.869 371.757C809.192 388.244 816.981 406.043 821.987 423.854C820.187 424.135 818.368 424.49 816.552 424.632C812.923 424.903 809.346 425.022 805.707 425.007C792.198 424.998 778.679 424.891 765.172 425.037C757.143 425.123 749.087 425.614 741.06 425.482C734.601 425.375 728.229 423.81 721.758 423.945C722.907 423.737 723.909 423.78 724.787 422.98C723.18 419.525 717.357 417 714.877 413.553C710.289 407.177 709.097 398.996 704.254 392.763C699.969 387.25 694.137 382.883 688.966 378.238C679.939 370.128 670.869 362.009 662.03 353.696C653.686 345.847 646.404 336.575 637.396 329.487C632.191 325.392 625.84 322.378 619.942 319.395C600.776 309.701 579.17 301.644 558.025 297.659C548.234 295.814 538.434 295.26 528.505 294.91C495.332 293.74 462.773 297.445 431.156 307.839C429.878 308.069 428.629 308.484 427.35 308.735C423.692 309.453 422.979 306.599 421.563 303.755C415.763 292.108 405.824 279.537 395.416 271.615C391.434 268.584 387.005 266.175 382.846 263.391L382.442 263.557L382.023 264.447L381.325 264.011C378.802 265.52 376.136 266.521 373.542 267.871C369.019 270.226 364.608 272.94 360.179 275.475C355.487 278.161 350.987 281.644 346.19 284.052C345.464 284.416 344.831 284.468 344.035 284.439L340.204 280.104C359.783 267.146 382.445 257.876 403.949 248.638C409.628 244.401 429.005 240.409 436.923 237.503C432.435 236.969 428.362 235.68 424.088 234.304C410.635 229.972 404.841 228.624 390.884 231.479L391.452 230.925C391.537 228.829 391.779 227.078 392.411 225.076C395.27 220.374 397.505 215.406 398.628 210.016L401.521 208.537Z"/>
	<path fill="#A18444" transform="matrix(1.00781 0 0 1.00781 0 -1.52588e-05)" d="M588.196 240.088C615.908 245.976 643.285 257.623 667.996 271.298C673.007 274.071 679.626 277.051 683.217 281.632C684.27 282.975 683.794 285.551 683.616 287.114C663.605 273.078 640.473 261.266 617.4 253.174C613.797 251.911 588.428 243.5 587.393 242.263L588.196 240.088Z"/>
	<path fill="#AA9C7E" transform="matrix(1.00781 0 0 1.00781 0 -1.52588e-05)" d="M403.949 248.638C430.362 241.536 451.701 234.482 479.514 235.594C467.63 237.927 455.593 239.455 443.727 241.894C415.339 247.727 388.532 257.806 363.226 271.911C357.34 275.192 348.372 279.163 344.035 284.439L340.204 280.104C359.783 267.146 382.445 257.876 403.949 248.638Z"/>
	<defs>
		<linearGradient id="gradient_11" gradientUnits="userSpaceOnUse" x1="780.80591" y1="389.59222" x2="799.04028" y2="371.53574">
			<stop offset="0" stop-color="#96825F"/>
			<stop offset="1" stop-color="#CEC4AB"/>
		</linearGradient>
	</defs>
	<path fill="url(#gradient_11)" transform="matrix(1.00781 0 0 1.00781 0 -1.52588e-05)" d="M761.622 336.123C762.266 336.023 762.646 335.77 763.194 336.171C767.558 339.366 771.417 343.98 775.197 347.865L789.984 362.801C792.337 365.222 794.68 368.322 797.302 370.413C798.316 371.222 799.631 371.493 800.869 371.757C809.192 388.244 816.981 406.043 821.987 423.854C820.187 424.135 818.368 424.49 816.552 424.632C812.923 424.903 809.346 425.022 805.707 425.007C804.991 421.446 803.657 417.896 802.566 414.426C791.863 385.519 778.953 361.459 761.622 336.123Z"/>
	<path fill="#A18444" transform="matrix(1.00781 0 0 1.00781 0 -1.52588e-05)" d="M802.566 414.426C803.14 413.958 803.284 413.549 804.088 413.72C807.615 414.469 814.55 421.69 816.552 424.632C812.923 424.903 809.346 425.022 805.707 425.007C804.991 421.446 803.657 417.896 802.566 414.426Z"/>
	<defs>
		<linearGradient id="gradient_12" gradientUnits="userSpaceOnUse" x1="587.51038" y1="220.68028" x2="518.76257" y2="184.76826">
			<stop offset="0" stop-color="#3C3B36"/>
			<stop offset="1" stop-color="#736E59"/>
		</linearGradient>
	</defs>
	<path fill="url(#gradient_12)" transform="matrix(1.00781 0 0 1.00781 0 -1.52588e-05)" d="M502.463 188.385C507.063 188.368 511.698 188.233 516.292 188.448C539.754 188.842 561.697 191.771 584.461 197.42C592.314 198.263 601.018 201.023 608.438 203.746L607.357 209.665L605.818 214.796C605.438 216.26 605.014 217.716 604.759 219.207C600.473 218.732 596.154 217.08 592.042 215.803C563.027 204.997 531.338 204.007 500.724 203.942C497.466 204.122 494.204 204.266 490.958 204.601C492.256 199.88 497.153 194.948 499.793 190.675L502.463 188.385Z"/>
	<path fill="#776941" transform="matrix(1.00781 0 0 1.00781 0 -1.52588e-05)" d="M584.461 197.42C592.314 198.263 601.018 201.023 608.438 203.746L607.357 209.665L605.818 214.796C605.438 216.26 605.014 217.716 604.759 219.207C600.473 218.732 596.154 217.08 592.042 215.803C592.504 210.661 593.863 206.162 595.559 201.298C591.855 200.332 587.732 199.452 584.461 197.42Z"/>
	<path fill="#776941" transform="matrix(1.00781 0 0 1.00781 0 -1.52588e-05)" d="M502.463 188.385C507.063 188.368 511.698 188.233 516.292 188.448C516.967 191.423 515.59 193.568 514.039 196.022C512.348 198.697 510.243 201.249 507.847 203.317C505.457 203.397 503.055 203.362 500.724 203.942C497.466 204.122 494.204 204.266 490.958 204.601C492.256 199.88 497.153 194.948 499.793 190.675L502.463 188.385Z"/>
	<defs>
		<linearGradient id="gradient_13" gradientUnits="userSpaceOnUse" x1="476.9411" y1="225.92429" x2="415.56189" y2="187.90988">
			<stop offset="0" stop-color="#807A63"/>
			<stop offset="1" stop-color="#B1AD92"/>
		</linearGradient>
	</defs>
	<path fill="url(#gradient_13)" transform="matrix(1.00781 0 0 1.00781 0 -1.52588e-05)" d="M401.521 208.537C422.914 197.349 478.66 186.638 502.463 188.385L499.793 190.675C497.153 194.948 492.256 199.88 490.958 204.601C489.269 204.958 487.618 205.183 485.902 205.362C454.477 209.453 423.724 216.964 394.439 229.213C393.455 229.793 392.478 230.425 391.452 230.925C391.537 228.829 391.779 227.078 392.411 225.076C395.27 220.374 397.505 215.406 398.628 210.016L401.521 208.537Z"/>
	<path fill="#797773" transform="matrix(1.00781 0 0 1.00781 0 -1.52588e-05)" d="M485.902 205.362C490.45 202.082 495.559 192.21 499.793 190.675C497.153 194.948 492.256 199.88 490.958 204.601C489.269 204.958 487.618 205.183 485.902 205.362Z"/>
	<path fill="#B9B8B7" transform="matrix(1.00781 0 0 1.00781 0 -1.52588e-05)" d="M401.521 208.537C403.14 213.668 396.748 224.769 394.439 229.213C393.455 229.793 392.478 230.425 391.452 230.925C391.537 228.829 391.779 227.078 392.411 225.076C395.27 220.374 397.505 215.406 398.628 210.016L401.521 208.537Z"/>
	<defs>
		<linearGradient id="gradient_14" gradientUnits="userSpaceOnUse" x1="697.24988" y1="294.78738" x2="719.01898" y2="272.8981">
			<stop offset="0" stop-color="#A99978"/>
			<stop offset="1" stop-color="#ECE4D3"/>
		</linearGradient>
	</defs>
	<path fill="url(#gradient_14)" transform="matrix(1.00781 0 0 1.00781 0 -1.52588e-05)" d="M608.438 203.746C634.903 213.496 659.748 226.214 683.764 240.946C688.656 243.948 695.173 247.369 699.144 251.496C727.606 269.562 749.478 294.659 769.635 321.335C774.486 327.755 780.447 334.583 783.755 341.911C789.983 351.491 796.11 361.346 800.869 371.757C799.631 371.493 798.316 371.222 797.302 370.413C794.68 368.322 792.337 365.222 789.984 362.801L775.197 347.865C771.417 343.98 767.558 339.366 763.194 336.171C762.646 335.77 762.266 336.023 761.622 336.123C758.525 332.696 755.85 328.778 752.967 325.161C747.579 318.403 741.991 311.666 736.228 305.224C704.586 269.853 672.841 249.866 630.468 229.778C625.101 227.345 619.796 224.787 614.486 222.234C611.304 221.001 608.044 220.118 604.759 219.207C605.014 217.716 605.438 216.26 605.818 214.796L607.357 209.665L608.438 203.746Z"/>
	<path fill="#AA9C7E" transform="matrix(1.00781 0 0 1.00781 0 -1.52588e-05)" d="M607.357 209.665C607.479 209.474 607.604 209.285 607.722 209.092C608.269 208.196 608.076 208.548 608.47 207.457C609.855 207.984 630.371 227.242 630.903 228.464C630.97 228.619 630.996 228.789 631.042 228.951L630.468 229.778C625.101 227.345 619.796 224.787 614.486 222.234C611.304 221.001 608.044 220.118 604.759 219.207C605.014 217.716 605.438 216.26 605.818 214.796L607.357 209.665Z"/>
	<path fill="#A18444" transform="matrix(1.00781 0 0 1.00781 0 -1.52588e-05)" d="M605.818 214.796C608.649 217.146 612.357 219.238 614.486 222.234C611.304 221.001 608.044 220.118 604.759 219.207C605.014 217.716 605.438 216.26 605.818 214.796Z"/>
	<path fill="#FEFEFE" transform="matrix(1.00781 0 0 1.00781 0 -1.52588e-05)" d="M699.144 251.496C727.606 269.562 749.478 294.659 769.635 321.335C774.486 327.755 780.447 334.583 783.755 341.911C782.438 341.629 781.825 341.15 780.897 340.167C777.521 336.593 774.57 332.526 771.286 328.851C763.383 320.005 755.018 311.495 746.865 302.876C741.541 297.249 736.324 291.101 730.615 285.879C728.473 283.919 725.842 283.287 723.577 281.653C716.935 276.859 710.126 270.042 704.902 263.797C702.038 260.373 698.748 256.16 699.144 251.496Z"/>
	<path fill="#4D95B2" transform="matrix(1.00781 0 0 1.00781 0 -1.52588e-05)" d="M226.948 635.175C251.599 634.292 276.328 633.254 300.949 631.77C315.027 630.921 329.12 629.306 343.224 629.06C361.021 628.751 378.846 629.17 396.643 629.348L458.929 629.732L640.163 630.899C666.596 631.115 693.143 631.697 719.568 631.272C735.905 631.008 752.118 629.648 768.491 629.788C774.131 629.836 794.579 629.536 799.006 631.67L799.686 632.748C788.309 659.82 775.568 685.049 757.653 708.441C753.359 714.047 748.823 720.029 743.431 724.606C738.52 729.57 733.523 734.441 728.516 739.308C724.454 743.104 720.323 746.847 716.381 750.767C704.646 760.772 692.694 770.909 679.366 778.768C647.54 799.316 613.285 813.818 576.24 821.873C539.154 829.936 504.65 830.413 467.208 824.313C419.16 816.484 379.02 800.251 338.09 773.964C325.988 768.224 315.389 757.345 305.665 748.32L295.778 737.93C268.057 707.465 240.9 674.54 226.948 635.175Z"/>
	<path fill="#D2A847" transform="matrix(1.00781 0 0 1.00781 0 -1.52588e-05)" d="M483.032 677.213C481.783 676.372 480.283 675.312 479.334 674.146C478.609 673.254 478.596 673.259 478.763 672.081C480.055 671.208 481.325 671.454 482.803 671.541C482.915 673.431 483.055 675.319 483.032 677.213Z"/>
	<path fill="#D2A847" transform="matrix(1.00781 0 0 1.00781 0 -1.52588e-05)" d="M561.607 672.868C563.398 673.064 564.999 672.966 566.79 672.789L563.641 675.592L559.91 676.465C558.981 675.961 558.155 675.468 557.323 674.813C556.373 674.063 556.6 674.521 556.478 673.476C558.055 672.647 559.871 672.855 561.607 672.868Z"/>
	<path fill="#FEFEFE" transform="matrix(1.00781 0 0 1.00781 0 -1.52588e-05)" d="M522.462 671.077C526.673 669.593 540.478 669.206 544.531 670.927C545.064 671.154 545.108 671.232 545.486 671.56C545.307 672.711 545.541 672.288 545.023 672.934C537.801 673.29 529.297 673.728 522.462 671.077Z"/>
	<path fill="#197290" transform="matrix(1.00781 0 0 1.00781 0 -1.52588e-05)" d="M546.549 733.713C548.083 733.494 549.581 733.167 551.042 733.851C551.337 733.989 551.623 734.146 551.914 734.294L553.831 733.435L551.735 734.759L550.975 734.449L551.158 734.853L552.619 735.271C548.524 737.332 536.695 736.876 531.883 736.81C527.609 736.629 523.321 736.653 519.043 736.617C528.015 734.573 537.39 734.213 546.549 733.713Z"/>
	<path fill="#A18444" transform="matrix(1.00781 0 0 1.00781 0 -1.52588e-05)" d="M584.469 670.411C589.326 671.071 596.77 671.059 600.885 673.753L601.078 674.703L600.688 675.225C598.85 676.613 597.034 678.058 595.147 679.377C592.467 676.966 589.601 675.925 586.263 674.759L585.584 674.724C584.553 673.623 584.632 671.848 584.469 670.411Z"/>
	<path fill="#EBCF74" transform="matrix(1.00781 0 0 1.00781 0 -1.52588e-05)" d="M586.263 674.759C591.116 674.314 595.858 674.697 600.688 675.225C598.85 676.613 597.034 678.058 595.147 679.377C592.467 676.966 589.601 675.925 586.263 674.759Z"/>
	<path fill="#A18444" transform="matrix(1.00781 0 0 1.00781 0 -1.52588e-05)" d="M561.607 672.868C564.771 671.632 567.931 672.728 571.289 670.775C577.384 667.23 578.739 659.008 580.519 652.74L582.747 663.33C579.338 667.463 577.886 671.839 575.671 676.607L575.21 676.468C572.907 673.784 570.162 673.206 566.79 672.789C564.999 672.966 563.398 673.064 561.607 672.868Z"/>
	<path fill="#FEFEFE" transform="matrix(1.00781 0 0 1.00781 0 -1.52588e-05)" d="M566.79 672.789C570.162 673.206 572.907 673.784 575.21 676.468L575.671 676.607C577.657 677.437 580.374 678.081 581.923 679.563C582.062 680.536 582.256 680.343 581.677 680.99C578.776 684.231 571.984 682.003 569.982 684.22L568.891 685.329C566.791 681.231 563.522 679.137 559.91 676.465L563.641 675.592L566.79 672.789Z"/>
	<path fill="#E1D5A8" transform="matrix(1.00781 0 0 1.00781 0 -1.52588e-05)" d="M566.79 672.789C570.162 673.206 572.907 673.784 575.21 676.468C571.513 676.645 567.293 676.248 563.641 675.592L566.79 672.789Z"/>
	<path fill="#A18444" transform="matrix(1.00781 0 0 1.00781 0 -1.52588e-05)" d="M444.462 683.196C447.539 686.576 450.221 689.271 454.773 690.539C456.226 694.345 457.845 698.067 459.483 701.797C454.084 698.143 448.634 694.634 443.067 691.242C438.487 694.116 433.828 696.825 429.139 699.515C430.356 696.342 431.703 693.217 433.019 690.084C435.656 690.382 437.493 690.205 439.66 688.551C441.506 687.142 443.103 685.074 444.462 683.196Z"/>
	<path fill="#D2A847" transform="matrix(1.00781 0 0 1.00781 0 -1.52588e-05)" d="M444.542 656.225C444.626 656.371 444.713 656.515 444.796 656.662C447.278 661.099 448.07 669.918 453.707 671.376C455.087 671.733 456.958 671.553 458.384 671.522C457.529 672.96 457.277 673.892 455.528 674.414C453.415 675.045 450.198 674.263 448.021 673.983C447.87 672.141 447.125 669.603 446.354 667.927C445.981 667.115 446.14 667.411 445.136 667.004C442.298 668.371 441.078 671.835 438.073 673.465C437.934 673.541 437.793 673.612 437.652 673.685C436.951 673.683 436.127 673.389 435.44 673.224C433.03 674.662 430.715 675.905 429.457 678.56C428.811 678.5 428.178 678.27 427.573 678.039C424.504 676.863 422.616 674.472 421.38 671.527C427.372 669.482 431.81 669.817 437.716 672.039C439.578 666.563 441.957 661.393 444.542 656.225Z"/>
	<path fill="#A18444" transform="matrix(1.00781 0 0 1.00781 0 -1.52588e-05)" d="M429.457 678.56C428.811 678.5 428.178 678.27 427.573 678.039C424.504 676.863 422.616 674.472 421.38 671.527C425.884 672.905 430.762 672.974 435.44 673.224C433.03 674.662 430.715 675.905 429.457 678.56Z"/>
	<path fill="#D2A847" transform="matrix(1.00781 0 0 1.00781 0 -1.52588e-05)" d="M522.107 671.077L522.462 671.077C529.297 673.728 537.801 673.29 545.023 672.934C539.444 678.197 534.07 682.386 527.114 685.655C528.728 689.86 534.204 704.038 532.793 708.281C532.618 708.807 532.636 708.695 532.173 708.884C531.104 704.252 530.492 695.477 527.327 691.961C526.591 691.143 526.559 691.124 525.425 691.075C523.575 689.323 522.293 686.143 520.655 684.045C524.233 680.272 529.537 678.406 533.297 674.495C528.388 674.653 523.232 675.2 518.412 674.072C519.73 673.14 520.912 672.161 522.107 671.077Z"/>
	<path fill="#D2A847" transform="matrix(1.00781 0 0 1.00781 0 -1.52588e-05)" d="M568.057 695.406C571.099 693.978 579.802 688.172 582.015 687.8C583.028 688.337 583.851 688.734 584.979 688.958C587.677 687.205 588.655 683.751 591.526 681.795C591.681 681.69 591.838 681.589 591.994 681.486C592.666 688.454 593.648 694.971 595.52 701.744C589.967 697.735 584.619 694.094 577.394 695.389C573.031 696.171 568.919 698.026 564.664 699.215L568.891 685.329L569.982 684.22C570.928 687.092 568.954 692.513 568.057 695.406Z"/>
	<path fill="#E1D5A8" transform="matrix(1.00781 0 0 1.00781 0 -1.52588e-05)" d="M582.747 663.33C583.328 665.68 583.998 668.039 584.469 670.411C584.632 671.848 584.553 673.623 585.584 674.724L586.263 674.759C589.601 675.925 592.467 676.966 595.147 679.377L591.994 681.486C591.838 681.589 591.681 681.69 591.526 681.795C588.655 683.751 587.677 687.205 584.979 688.958C583.851 688.734 583.028 688.337 582.015 687.8C579.802 688.172 571.099 693.978 568.057 695.406C568.954 692.513 570.928 687.092 569.982 684.22C571.984 682.003 578.776 684.231 581.677 680.99C582.256 680.343 582.062 680.536 581.923 679.563C580.374 678.081 577.657 677.437 575.671 676.607C577.886 671.839 579.338 667.463 582.747 663.33Z"/>
	<path fill="#A18444" transform="matrix(1.00781 0 0 1.00781 0 -1.52588e-05)" d="M494.365 692.073C495.713 690.555 496.371 689.136 497.146 687.269C496.819 691.041 496.453 694.803 496.027 698.566C501.742 696.057 507.499 693.329 513.617 691.967C515.805 693.379 518.953 696.055 521.671 695.669C522.698 695.523 523.608 694.749 524.132 693.874C524.652 693.003 525.071 692.024 525.425 691.075C526.559 691.124 526.591 691.143 527.327 691.961C530.492 695.477 531.104 704.252 532.173 708.884C525.235 706.275 518.43 702.162 511.812 698.779C504.098 702.616 496.861 708.26 489.941 713.382C491.089 706.203 492.132 699.016 494.365 692.073Z"/>
	<path fill="#E1D5A8" transform="matrix(1.00781 0 0 1.00781 0 -1.52588e-05)" d="M504.883 675.053L504.785 682.062C508.23 684.117 512.234 686.831 516.461 685.853C517.908 685.519 519.353 684.747 520.655 684.045C522.293 686.143 523.575 689.323 525.425 691.075C525.071 692.024 524.652 693.003 524.132 693.874C523.608 694.749 522.698 695.523 521.671 695.669C518.953 696.055 515.805 693.379 513.617 691.967C507.499 693.329 501.742 696.057 496.027 698.566C496.453 694.803 496.819 691.041 497.146 687.269C496.371 689.136 495.713 690.555 494.365 692.073L495.193 686.385C492.328 684.431 489.563 682.366 486.797 680.276C488.126 679.276 489.504 678.338 490.867 677.385C495.583 675.837 499.968 675.439 504.883 675.053Z"/>
	<path fill="#D2A847" transform="matrix(1.00781 0 0 1.00781 0 -1.52588e-05)" d="M486.797 680.276C488.126 679.276 489.504 678.338 490.867 677.385C494.022 679.439 498.024 681.606 500.513 684.455L500.639 685.334C499.602 685.774 498.621 686.069 497.526 686.333L497.146 687.269C496.371 689.136 495.713 690.555 494.365 692.073L495.193 686.385C492.328 684.431 489.563 682.366 486.797 680.276Z"/>
	<path fill="#EBCF74" transform="matrix(1.00781 0 0 1.00781 0 -1.52588e-05)" d="M437.652 673.685C437.793 673.612 437.934 673.541 438.073 673.465C441.078 671.835 442.298 668.371 445.136 667.004C446.14 667.411 445.981 667.115 446.354 667.927C447.125 669.603 447.87 672.141 448.021 673.983C450.198 674.263 453.415 675.045 455.528 674.414C457.277 673.892 457.529 672.96 458.384 671.522C462.692 671.132 467.112 671.114 471.387 670.574C465.57 675.748 459.722 680.272 452.842 683.946C453.593 686.132 454.21 688.299 454.773 690.539C450.221 689.271 447.539 686.576 444.462 683.196C443.103 685.074 441.506 687.142 439.66 688.551C437.493 690.205 435.656 690.382 433.019 690.084C433.945 687.775 434.698 685.379 435.513 683.027C433.585 681.343 431.592 679.953 429.457 678.56C430.715 675.905 433.03 674.662 435.44 673.224C436.127 673.389 436.951 673.683 437.652 673.685Z"/>
	<path fill="#E1D5A8" transform="matrix(1.00781 0 0 1.00781 0 -1.52588e-05)" d="M437.652 673.685C437.793 673.612 437.934 673.541 438.073 673.465C441.078 671.835 442.298 668.371 445.136 667.004C446.14 667.411 445.981 667.115 446.354 667.927C447.125 669.603 447.87 672.141 448.021 673.983C446.682 675.01 445.821 675.86 444.893 677.274C444.234 675.909 444.202 675.582 442.91 674.838L442.312 675.134C442.486 676.274 442.677 677.244 442.505 678.396L441.754 678.5C440.794 678.138 440.493 677.75 439.961 676.921C439.238 675.793 438.471 674.746 437.652 673.685Z"/>
	<path fill="#A18444" transform="matrix(1.00781 0 0 1.00781 0 -1.52588e-05)" d="M511.298 646.195C516.435 653.604 518.097 663.035 522.107 671.077C520.912 672.161 519.73 673.14 518.412 674.072C523.232 675.2 528.388 674.653 533.297 674.495C529.537 678.406 524.233 680.272 520.655 684.045C519.353 684.747 517.908 685.519 516.461 685.853C512.234 686.831 508.23 684.117 504.785 682.062L504.883 675.053C499.968 675.439 495.583 675.837 490.867 677.385C489.504 678.338 488.126 679.276 486.797 680.276L483.032 677.213C483.055 675.319 482.915 673.431 482.803 671.541C488.239 672.279 493.953 672 499.431 671.997C505.349 664.495 507.685 654.904 511.298 646.195Z"/>
	<path fill="#EBCF74" transform="matrix(1.00781 0 0 1.00781 0 -1.52588e-05)" d="M512.182 658.592C513.741 663.859 514.881 669.736 518.412 674.072C523.232 675.2 528.388 674.653 533.297 674.495C529.537 678.406 524.233 680.272 520.655 684.045C519.353 684.747 517.908 685.519 516.461 685.853C512.234 686.831 508.23 684.117 504.785 682.062L504.883 675.053C508.175 669.817 510.224 664.442 512.182 658.592Z"/>
	<path fill="#197290" transform="matrix(1.00781 0 0 1.00781 0 -1.52588e-05)" d="M338.09 773.964C342.85 774.141 368.788 785.427 375.688 787.737C391.498 793.03 407.714 797.488 424.196 800.092C466.616 806.795 559.838 814.664 598.745 803.511C620.072 797.397 651.139 780.807 669.75 768.833C678.101 763.46 685.975 757.488 694.005 751.659C702.109 745.778 734.931 723.254 743.431 724.606C738.52 729.57 733.523 734.441 728.516 739.308C724.454 743.104 720.323 746.847 716.381 750.767C704.646 760.772 692.694 770.909 679.366 778.768C647.54 799.316 613.285 813.818 576.24 821.873C539.154 829.936 504.65 830.413 467.208 824.313C419.16 816.484 379.02 800.251 338.09 773.964Z"/>
</svg>
